<?xml  version="1.0" encoding="UTF-8"?>
<!DOCTYPE svg PUBLIC "-//W3C//DTD SVG 1.0//EN" "http://www.w3.org/TR/2001/REC-SVG-20010904/DTD/svg10.dtd" >
<svg xmlns="http://www.w3.org/2000/svg" >
<metadata>
<version>1.0</version>
<id><![CDATA[Linotype Univers W02 Bold]]></id>
<vendor>Monotype Imaging Inc.</vendor>
<credits>
<name>Fonts.com WebFonts</name>
<URL>http://webfonts.fonts.com</URL>
<role>Home of the Web fonts</role>
</credits>
<license>
<URL>http://webfonts.fonts.com/Legal</URL>
</license>
<copyright><![CDATA[Copyright © 2005 - 2008 Linotype GmbH, www.linotype.com. All rights reserved. This font software may not be reproduced, modified, disclosed or transferred without the express written approval of Linotype GmbH. Univers is a trademark of Linotype Corp. registered in the U.S. Patent and Trademark Office and may be registered in certain other jurisdictions in the name of Linotype Corp. or its licensee Linotype GmbH. This typeface is original artwork of Adrian Frutiger and Linotype Design Studio. The design may be protected in certain jurisdictions.]]></copyright>
<trademark><![CDATA[Univers is a trademark of Linotype Corp. registered in the U.S. Patent and Trademark Office and may be registered in certain other jurisdictions in the name of Linotype Corp. or its licensee Linotype GmbH.]]></trademark>
<licensee>
<name></name>
</licensee>
</metadata>
<defs >
<font horiz-adv-x="581" id="9f007a5d-ea90-417c-83cf-55205ed2d4f5">
<font-face font-family="" panose-1="2 11 8 3 3 2 2 2 2 3" ascent="917" descent="-214" units-per-em="1000" alphabetic="0">
</font-face>
<missing-glyph horiz-adv-x="0" />

<glyph unicode="&#xA;" />
<glyph unicode="&#xD;" horiz-adv-x="0" />
<glyph unicode=" " horiz-adv-x="314" />
<glyph unicode="!" horiz-adv-x="339" d="M254 723L226 200H112L85 723H254ZM240 0H98V128H240V0Z"  />
<glyph unicode="&quot;" horiz-adv-x="477" d="M392 723L370 478H289L267 723H392ZM211 723L189 478H108L85 723H211Z"  />
<glyph unicode="#" horiz-adv-x="628" d="M599 427H491L466 288H557V188H448L414 0H303L336 188H231L198 0H86L120 188H29V288H138L162 427H71V527H180L215 723H327L292 527H397L431 723H543L508 527H599V427ZM379 427H274L249 288H354L379 427Z"  />
<glyph unicode="$" horiz-adv-x="628" d="M584 198Q584 98 514 43Q454 -4 355 -11V-109H285V-12Q46 -5 44 205H186Q186 100 285 87V297Q166 331 129 355Q56 403 56 503Q56 602 126 656Q187 702 285 706V805H355V705Q457 698 506 657Q561 610 564 507H424Q423 549 408 572T355 605V404Q470 374 512 346Q584 298 584 198ZM285 420V609Q248 605 225 581T201 516Q201 446 285 420ZM438 188Q438 257 355 282V88Q438 104 438 188Z"  />
<glyph unicode="%" horiz-adv-x="923" d="M900 197Q900 107 863 54Q820 -6 733 -6Q647 -6 603 53Q565 106 565 195Q565 285 604 336Q648 394 735 394Q820 394 863 336Q900 285 900 197ZM710 755L301 -26H209L620 755H710ZM358 544Q358 454 320 401Q277 340 190 340Q105 340 61 401Q23 454 23 542Q23 632 62 683Q106 741 193 741Q278 741 321 683Q358 632 358 544ZM798 192Q798 321 735 321Q667 321 667 186Q667 67 733 67Q798 67 798 192ZM255 539Q255 668 192 668Q125 668 125 533Q125 414 190 414Q255 414 255 539Z"  />
<glyph unicode="&amp;" horiz-adv-x="810" d="M782 333H643V0H339Q219 0 148 41Q55 94 55 209Q55 283 102 332Q145 376 218 392V394Q88 426 88 554Q88 647 166 698Q232 741 326 741Q385 741 460 730V624Q412 633 376 633Q236 633 236 538Q236 438 386 438H501V575H643V438H782V333ZM501 106V333H384Q211 333 211 221Q211 106 410 106H501Z"  />
<glyph unicode="&apos;" horiz-adv-x="295" d="M210 723L188 478H107L85 723H210Z"  />
<glyph unicode="(" horiz-adv-x="317" d="M274 -150H173Q117 -18 93 60Q56 180 56 282Q56 385 93 508Q115 578 174 723H274Q226 565 213 506Q184 384 184 284Q184 119 274 -150Z"  />
<glyph unicode=")" horiz-adv-x="317" d="M261 289Q261 189 224 64Q199 -16 144 -150H44Q92 10 104 63Q133 185 133 283Q133 451 43 723H144Q261 457 261 289Z"  />
<glyph unicode="*" horiz-adv-x="463" d="M423 485L282 508L375 392L282 343L231 478L179 341L91 392L183 508L40 485V588L184 565L91 678L180 730L232 593L283 730L372 676L280 565L423 588V485Z"  />
<glyph unicode="+" horiz-adv-x="665" d="M595 205H390V0H276V205H70V316H276V521H390V316H595V205Z"  />
<glyph unicode="&#x2c;" horiz-adv-x="314" d="M248 128L143 -118H36L96 128H248Z"  />
<glyph unicode="-" horiz-adv-x="325" d="M299 217H26V313H299V217Z"  />
<glyph unicode="." horiz-adv-x="314" d="M228 0H85V128H228V0Z"  />
<glyph unicode="/" horiz-adv-x="283" d="M306 741L81 -14H-22L203 741H306Z"  />
<glyph unicode="0" horiz-adv-x="628" d="M589 368Q589 203 530 106Q460 -12 312 -12Q166 -12 96 108Q39 206 39 369Q39 528 99 625Q171 741 315 741Q461 741 531 625Q589 529 589 368ZM439 359Q439 637 317 637Q235 637 206 532Q190 472 190 357Q190 92 312 92Q439 92 439 359Z"  />
<glyph unicode="1" horiz-adv-x="628" d="M430 0H282V579Q215 518 118 484V607Q218 642 304 723H430V0Z"  />
<glyph unicode="2" horiz-adv-x="628" d="M566 0H44V119Q196 240 263 305Q408 447 408 534Q408 580 382 607T311 635Q263 635 236 605T207 523H56Q58 633 138 691Q208 741 318 741Q416 741 485 692Q562 637 562 540Q562 461 499 374Q451 309 359 228Q289 169 219 110H566V0Z"  />
<glyph unicode="3" horiz-adv-x="628" d="M580 199Q580 89 489 33Q414 -12 301 -12Q41 -12 28 202H178Q179 149 215 119Q248 91 300 91Q356 91 391 121Q430 154 430 211Q430 325 276 325Q266 325 227 322V423Q252 421 266 421Q418 421 418 533Q418 582 385 610T304 638Q262 638 232 616Q195 589 195 537H41Q41 637 130 693Q206 741 307 741Q409 741 480 698Q565 645 565 546Q565 478 523 434T411 378Q580 352 580 199Z"  />
<glyph unicode="4" horiz-adv-x="628" d="M611 157H500V0H360V157H28V287L327 723H500V259H611V157ZM364 607L132 258H362L364 607Z"  />
<glyph unicode="5" horiz-adv-x="628" d="M580 248Q580 121 510 54T318 -13Q56 -13 56 188H205Q207 141 236 117T311 92Q370 92 401 138Q429 178 429 243Q429 304 402 342Q373 384 317 384Q279 384 251 363T215 303H67L83 722L541 723V616H216L205 402Q262 487 362 487Q462 487 522 417Q580 351 580 248Z"  />
<glyph unicode="6" horiz-adv-x="628" d="M593 245Q593 130 518 59T331 -12Q182 -12 109 99Q48 193 48 357Q48 523 111 623Q185 741 336 741Q439 741 501 695Q570 644 570 546H426Q426 643 331 643Q251 643 215 548Q190 482 189 381Q246 482 369 482Q466 482 529 417T593 245ZM454 239Q454 303 425 341Q393 384 334 384Q268 384 234 340Q205 301 205 236Q205 174 239 133T331 92Q390 92 423 135Q454 175 454 239Z"  />
<glyph unicode="7" horiz-adv-x="628" d="M561 606L297 0H125L415 611H48V723H561V606Z"  />
<glyph unicode="8" horiz-adv-x="628" d="M589 201Q589 90 504 34Q432 -13 321 -13Q207 -13 132 30Q39 85 39 195Q39 346 212 380Q166 383 123 414Q60 461 60 544Q60 645 143 698Q212 741 316 741Q418 741 486 699Q571 648 571 549Q571 481 528 436Q488 395 421 380Q471 376 517 344Q589 294 589 201ZM432 534Q432 586 399 616T316 647Q265 647 231 617T197 535Q197 482 230 456T315 429Q364 429 398 456T432 534ZM448 210Q448 269 407 302Q370 332 312 332Q256 332 220 301Q181 268 181 211Q181 152 219 119T313 86Q369 86 407 117Q448 152 448 210Z"  />
<glyph unicode="9" horiz-adv-x="628" d="M585 377Q585 -15 296 -15Q179 -15 110 36T41 178H191Q196 142 206 129Q230 93 296 93Q386 93 420 187Q440 242 442 357Q386 268 270 268Q170 268 105 331T40 499Q40 610 117 677Q191 741 305 741Q585 741 585 377ZM431 503Q431 563 398 600T307 638Q246 638 213 602T180 503Q180 443 213 404T302 365Q361 365 396 403T431 503Z"  />
<glyph unicode=":" horiz-adv-x="314" d="M229 375H86V503H229V375ZM229 0H86V128H229V0Z"  />
<glyph unicode=";" horiz-adv-x="314" d="M231 375H88V503H231V375ZM250 128L145 -118H38L98 128H250Z"  />
<glyph unicode="&lt;" horiz-adv-x="665" d="M595 -3L70 203V318L595 524V405L204 260L595 116V-3Z"  />
<glyph unicode="=" horiz-adv-x="665" d="M595 315H70V426H595V315ZM595 95H70V205H595V95Z"  />
<glyph unicode="&gt;" horiz-adv-x="664" d="M594 203L70 -3V116L461 260L70 405V524L594 318V203Z"  />
<glyph unicode="?" horiz-adv-x="542" d="M484 548Q484 486 436 430Q416 407 337 343Q305 317 297 303Q285 284 285 249V200H163V269Q163 308 177 330T235 392Q283 437 299 458Q329 497 329 533Q329 636 188 636Q141 636 83 620V724Q160 738 223 738Q484 738 484 548ZM294 0H152V128H294V0Z"  />
<glyph unicode="@" horiz-adv-x="795" d="M773 439Q773 340 717 262Q656 176 560 176Q520 176 497 201T478 265Q429 172 337 172Q273 172 235 219Q201 263 201 329Q201 418 257 492Q317 571 404 571Q492 571 516 498L532 554H622Q600 484 579 413Q546 304 546 276Q546 237 586 237Q642 237 681 314Q714 379 714 441Q714 558 629 625Q551 687 431 687Q283 687 184 594Q82 499 82 352Q82 209 180 122Q274 38 419 38Q564 38 695 136L725 95Q574 -14 414 -14Q249 -14 137 86Q22 190 22 353Q22 522 142 633Q260 741 430 741Q573 741 669 663Q773 578 773 439ZM486 445Q486 471 470 488T427 506Q376 506 339 436Q307 376 307 320Q307 237 367 237Q416 237 454 319Q486 388 486 445Z"  />
<glyph unicode="A" horiz-adv-x="758" d="M763 0H590L528 166H212L150 0H-4L288 723H465L763 0ZM487 272L371 611L250 272H487Z"  />
<glyph unicode="B" horiz-adv-x="701" d="M656 202Q656 91 559 39Q485 0 367 0H83V723H334Q437 723 476 714Q630 679 630 540Q630 414 486 377Q656 345 656 202ZM474 520Q474 615 345 615H235V422H335Q474 422 474 520ZM495 213Q495 319 359 319H235V108H350Q495 108 495 213Z"  />
<glyph unicode="C" horiz-adv-x="719" d="M682 213Q669 97 581 38Q504 -12 382 -12Q213 -12 126 89Q44 184 44 356Q44 526 131 628Q223 737 390 737Q509 737 586 685Q675 624 678 509H516Q504 619 390 619Q294 619 245 529Q206 456 206 351Q206 250 244 184Q292 102 385 102Q503 102 519 213H682Z"  />
<glyph unicode="D" horiz-adv-x="780" d="M736 365Q736 159 617 73Q516 0 310 0H83V723H334Q736 723 736 365ZM575 363Q575 496 513 554T320 612H240V111H314Q449 111 512 171T575 363Z"  />
<glyph unicode="E" horiz-adv-x="622" d="M582 0H83V723H572V611H237V423H554V312H237V112H582V0Z"  />
<glyph unicode="F" horiz-adv-x="588" d="M560 611H237V418H541V307H237V0H83V723H560V611Z"  />
<glyph unicode="G" horiz-adv-x="767" d="M698 27Q549 -12 420 -12Q243 -12 144 85T44 360Q44 532 142 636T411 740Q677 740 697 514H538Q522 623 402 623Q302 623 251 540Q208 471 208 364Q208 249 259 179Q317 99 428 99Q495 99 549 114V284H396V391H698V27Z"  />
<glyph unicode="H" horiz-adv-x="793" d="M710 0H553V309H240V0H83V723H240V427H553V723H710V0Z"  />
<glyph unicode="I" horiz-adv-x="323" d="M240 0H83V723H240V0Z"  />
<glyph unicode="J" horiz-adv-x="578" d="M504 232Q504 -12 249 -12Q149 -12 82 33Q6 87 6 183Q6 202 7 211H168V186Q168 148 191 125T252 101Q347 101 347 231V723H504V232Z"  />
<glyph unicode="K" horiz-adv-x="721" d="M725 0H529L242 397L502 723H692L408 403L725 0ZM240 0H83V723H240V0Z"  />
<glyph unicode="L" horiz-adv-x="594" d="M578 0H83V723H240V114H578V0Z"  />
<glyph unicode="M" horiz-adv-x="1017" d="M934 0H788V629L572 0H434L218 630V0H83V723H323L512 156L694 723H934V0Z"  />
<glyph unicode="N" horiz-adv-x="799" d="M716 0H496L218 596V0H83V723H303L581 126V723H716V0Z"  />
<glyph unicode="O" horiz-adv-x="779" d="M735 362Q735 194 648 92Q555 -14 388 -14Q220 -14 129 90Q44 189 44 360Q44 531 131 632Q223 741 391 741Q560 741 650 634Q735 534 735 362ZM577 365Q577 473 537 542Q488 626 388 626Q290 626 241 541Q202 472 202 365Q202 254 239 186Q286 101 388 101Q490 101 538 186Q577 254 577 365Z"  />
<glyph unicode="P" horiz-adv-x="665" d="M639 498Q639 432 606 380T513 303Q461 281 376 281H240V0H83V723H351Q485 723 547 681Q639 619 639 498ZM480 505Q480 612 332 612H240V392H321Q480 392 480 505Z"  />
<glyph unicode="Q" horiz-adv-x="779" d="M771 0Q573 0 526 -2Q400 -10 377 -10Q215 -10 126 96Q44 195 44 360Q44 531 130 632Q221 741 389 741Q550 741 642 644T734 384Q734 193 600 95Q681 106 771 106V0ZM577 365Q577 473 537 542Q488 626 388 626Q290 626 241 541Q202 472 202 365Q202 254 239 187Q286 102 388 102Q490 102 538 187Q577 255 577 365Z"  />
<glyph unicode="R" horiz-adv-x="709" d="M668 0H504Q491 37 485 92Q480 139 476 186Q469 256 448 279Q424 305 356 305H239V0H83V723H360Q476 723 533 699Q649 651 649 540Q649 397 486 365V364Q548 360 579 336T622 254Q625 242 633 182Q638 136 644 89Q652 35 668 0ZM496 514Q496 613 339 613H239V411H328Q404 411 440 426Q496 450 496 514Z"  />
<glyph unicode="S" horiz-adv-x="678" d="M633 215Q633 100 536 39Q454 -12 332 -12Q205 -12 131 40Q47 100 45 222H202Q206 99 335 99Q389 99 427 124Q471 153 471 203Q471 252 409 278Q367 291 284 316Q177 349 133 381Q62 433 62 522Q62 633 154 690Q231 737 349 737Q611 737 612 528H455Q445 632 337 632Q290 632 257 608Q221 582 221 537Q221 506 244 488T354 441Q414 422 475 402Q555 371 589 337Q633 292 633 215Z"  />
<glyph unicode="T" horiz-adv-x="621" d="M615 608H389V0H232V608H6V723H615V608Z"  />
<glyph unicode="U" horiz-adv-x="795" d="M715 301Q715 -15 395 -15Q191 -15 119 110Q80 178 80 305V723H241V297Q241 203 272 156Q309 99 399 99Q559 99 559 301V723H715V301Z"  />
<glyph unicode="V" horiz-adv-x="706" d="M710 723L443 0H259L-3 723H165L356 131L554 723H710Z"  />
<glyph unicode="W" horiz-adv-x="1110" d="M1106 723L909 0H720L559 591L395 0H206L4 723H169L309 133L469 723H659L815 133L952 723H1106Z"  />
<glyph unicode="X" horiz-adv-x="740" d="M744 0H548L361 283L180 0H-3L271 377L12 723H210L375 469L535 723H716L465 378L744 0Z"  />
<glyph unicode="Y" horiz-adv-x="688" d="M703 724L423 281V0H266V281L-14 724H168L350 389L534 724H703Z"  />
<glyph unicode="Z" horiz-adv-x="630" d="M610 0H20V128L403 610H44V723H596V605L196 113H610V0Z"  />
<glyph unicode="[" horiz-adv-x="317" d="M299 -151H67V723H299V642H178V-69H299V-151Z"  />
<glyph unicode="\" horiz-adv-x="283" d="M306 -14H202L-22 741H80L306 -14Z"  />
<glyph unicode="]" horiz-adv-x="317" d="M250 -151H18V-69H139V642H18V723H250V-151Z"  />
<glyph unicode="^" horiz-adv-x="665" d="M562 294H442L332 587L224 294H103L281 723H384L562 294Z"  />
<glyph unicode="_" horiz-adv-x="505" d="M503 -124H2V-74H503V-124Z"  />
<glyph unicode="`" horiz-adv-x="319" d="M247 590H149L-16 735H147L247 590Z"  />
<glyph unicode="a" horiz-adv-x="572" d="M517 0H379Q369 29 367 69Q314 -9 206 -9Q128 -9 81 27Q30 68 30 144Q30 315 326 315H367V334Q367 439 291 439Q213 439 213 360H64Q65 445 137 486Q196 519 289 519Q402 519 450 483Q509 439 509 323V173Q509 62 517 0ZM367 235Q367 244 363 244Q360 244 348 245Q336 245 329 245Q174 245 174 152Q174 118 198 98T256 77Q367 77 367 235Z"  />
<glyph unicode="b" horiz-adv-x="632" d="M597 259Q597 144 543 71Q482 -9 370 -9Q279 -9 214 67L211 0H67Q71 49 71 135V723H217V434Q281 516 379 516Q489 516 546 440Q597 372 597 259ZM447 257Q447 325 425 368Q396 424 335 424Q271 424 239 369Q213 324 213 254Q213 186 236 141Q265 84 326 84Q447 84 447 257Z"  />
<glyph unicode="c" horiz-adv-x="561" d="M540 181Q540 86 463 33Q397 -11 297 -11Q173 -11 104 56T35 248Q35 373 106 446T302 519Q401 519 461 475Q528 427 536 331H391Q387 432 301 432Q187 432 187 255Q187 76 298 76Q388 76 391 186H540V181Z"  />
<glyph unicode="d" horiz-adv-x="631" d="M566 0H419L415 67Q350 -9 258 -9Q149 -9 89 68Q35 139 35 251Q35 359 85 431Q144 516 253 516Q356 516 416 440V723H562V135Q562 42 566 0ZM419 254Q419 323 392 369Q359 424 295 424Q184 424 184 257Q184 84 303 84Q364 84 395 141Q419 187 419 254Z"  />
<glyph unicode="e" horiz-adv-x="576" d="M541 224H177Q177 161 203 122Q233 76 293 76Q383 76 394 164H536Q523 72 451 28Q389 -10 291 -10Q168 -10 102 56T35 244Q35 372 102 445T296 518Q463 518 519 384Q541 332 541 224ZM400 308Q400 432 295 432Q242 432 211 398T180 308H400Z"  />
<glyph unicode="f" horiz-adv-x="387" d="M380 626Q354 628 332 628Q284 628 269 606Q257 589 257 546V505H373V409H257V0H111V409H13V505H111V547Q111 727 284 727Q320 727 380 722V626Z"  />
<glyph unicode="g" horiz-adv-x="631" d="M567 504Q564 391 564 364V94Q564 -55 501 -127T299 -199Q203 -199 142 -169Q62 -129 62 -42V-34H200Q201 -111 300 -111Q366 -111 393 -72Q415 -41 418 24Q418 26 418 94Q360 10 257 10Q150 10 90 84Q35 152 35 262Q35 372 91 440Q151 515 258 515Q369 515 426 427V504H567ZM420 267Q420 331 395 374Q364 427 305 427Q243 427 212 373Q187 330 187 262Q187 195 211 153Q241 101 302 101Q365 101 396 155Q420 198 420 267Z"  />
<glyph unicode="h" horiz-adv-x="631" d="M562 0H417V269Q417 337 403 368Q382 414 321 414Q261 414 234 357Q215 318 215 261V0H69V723H215V431Q278 513 377 513Q562 513 562 326V0Z"  />
<glyph unicode="i" horiz-adv-x="284" d="M218 607H66V723H218V607ZM215 0H69V505H215V0Z"  />
<glyph unicode="j" horiz-adv-x="284" d="M218 607H66V723H218V607ZM215 -45Q215 -132 173 -164Q137 -191 46 -191Q19 -191 -17 -189V-89Q-13 -89 -6 -90T5 -91Q69 -91 69 -11V505H215V-45Z"  />
<glyph unicode="k" horiz-adv-x="616" d="M609 0H423L216 283L411 505H587L381 290L609 0ZM215 0H69V723H215V0Z"  />
<glyph unicode="l" horiz-adv-x="284" d="M215 0H69V723H215V0Z"  />
<glyph unicode="m" horiz-adv-x="970" d="M901 0H755V281Q755 343 740 373Q718 414 660 414Q558 414 558 276V0H412V280Q412 414 319 414Q215 414 215 279V0H69V336Q69 404 65 504H208L212 425Q267 512 381 512Q501 512 540 415Q596 512 720 512Q901 512 901 313V0Z"  />
<glyph unicode="n" horiz-adv-x="631" d="M562 0H416V267Q416 336 402 367Q381 414 321 414Q261 414 234 355Q215 314 215 254V0H69V405Q69 457 65 504H210L212 427Q278 512 378 512Q562 512 562 326V0Z"  />
<glyph unicode="o" horiz-adv-x="618" d="M583 254Q583 129 509 59T308 -11Q181 -11 108 58T35 254Q35 378 111 448T312 518Q438 518 510 449T583 254ZM431 253Q431 326 406 372Q374 430 308 430Q187 430 187 253Q187 75 308 75Q374 75 406 134Q431 181 431 253Z"  />
<glyph unicode="p" horiz-adv-x="635" d="M600 261Q600 147 545 73Q483 -9 373 -9Q280 -9 219 65V-189H73V380Q73 435 69 504H212L214 427Q273 515 381 515Q488 515 547 439Q600 371 600 261ZM450 256Q450 323 426 367Q396 424 335 424Q271 424 240 366Q216 320 216 250Q216 182 238 137Q267 79 327 79Q392 79 424 138Q450 185 450 256Z"  />
<glyph unicode="q" horiz-adv-x="634" d="M566 504Q562 450 562 380V-189H416V65Q355 -9 260 -9Q148 -9 89 66Q35 136 35 257Q35 364 87 435Q145 515 250 515Q360 515 419 427L421 504H566ZM418 250Q418 320 393 366Q361 424 298 424Q237 424 208 368Q185 324 185 256Q185 184 209 138Q240 79 305 79Q365 79 395 137Q418 183 418 250Z"  />
<glyph unicode="r" horiz-adv-x="398" d="M390 379Q366 382 346 382Q215 382 215 238V0H69V381Q69 401 67 441T65 504H206L210 411Q257 507 366 507Q382 507 390 506V379Z"  />
<glyph unicode="s" horiz-adv-x="537" d="M500 153Q500 64 422 21Q360 -12 263 -12Q37 -12 37 161H184Q187 71 270 71Q303 71 328 89T353 138Q353 185 257 209Q146 237 121 250Q51 287 51 364Q51 445 123 485Q180 517 267 517Q476 517 485 354H342Q339 435 265 435Q235 435 214 422Q189 407 189 379Q189 334 286 311Q398 284 427 269Q500 232 500 153Z"  />
<glyph unicode="t" horiz-adv-x="385" d="M367 409H248V179Q248 129 258 113Q272 92 319 92Q307 92 366 96V1Q313 -6 262 -6Q181 -6 146 19Q106 50 106 128V409H9V505H106V589L248 647V505H367V409Z"  />
<glyph unicode="u" horiz-adv-x="630" d="M566 0H420L418 77Q352 -7 253 -7Q69 -7 69 178V504H215V236Q215 166 228 136Q249 89 309 89Q417 89 417 243V504H563V186Q563 65 566 0Z"  />
<glyph unicode="v" horiz-adv-x="567" d="M566 504L363 0H205L1 504H156L288 114L424 504H566Z"  />
<glyph unicode="w" horiz-adv-x="925" d="M918 504L745 0H588L468 382L341 0H185L7 504H165L269 121L393 504H558L674 121L781 504H918Z"  />
<glyph unicode="x" horiz-adv-x="560" d="M559 0H379L268 184L158 0H1L189 261L10 504H191L285 342L381 504H538L366 261L559 0Z"  />
<glyph unicode="y" horiz-adv-x="573" d="M573 504L287 -189H148L228 -2L0 504H164L299 127L429 504H573Z"  />
<glyph unicode="z" horiz-adv-x="490" d="M463 0H29V99L293 405H39V504H453V401L196 97H463V0Z"  />
<glyph unicode="{" horiz-adv-x="389" d="M369 -152Q212 -143 165 -65Q139 -22 138 90Q138 189 101 217Q70 241 15 248V323Q124 334 136 434Q145 525 155 616Q194 714 369 723V652Q271 646 256 556Q249 472 242 388Q219 295 102 285Q155 278 191 252Q244 214 251 125Q261 -10 261 -12Q281 -77 369 -80V-152Z"  />
<glyph unicode="|" horiz-adv-x="264" d="M189 -213H75V787H189V-213Z"  />
<glyph unicode="}" horiz-adv-x="389" d="M374 247Q266 235 254 136Q245 45 235 -44Q196 -142 20 -152V-80Q119 -74 133 14Q140 97 146 181Q169 273 288 285Q238 291 199 319Q145 358 139 446Q129 581 128 582Q109 647 20 652V723Q176 715 225 637Q251 593 252 480Q252 380 289 353Q322 328 374 323V247Z"  />
<glyph unicode="~" horiz-adv-x="666" d="M606 350Q600 278 568 230Q529 172 462 172Q422 172 327 205T200 238Q144 238 135 172H60Q66 243 99 291Q138 349 204 349Q246 349 336 317T467 284Q520 284 531 350H606Z"  />
<glyph unicode="&#xA0;" horiz-adv-x="314" />
<glyph unicode="&#xA1;" horiz-adv-x="339" d="M240 380H98V508H240V380ZM254 -214H85L112 308H226L254 -214Z"  />
<glyph unicode="&#xA2;" horiz-adv-x="628" d="M347 431Q341 432 335 432Q221 432 221 255Q221 158 255 113L347 431ZM574 181Q574 86 497 33Q431 -11 331 -11Q307 -11 286 -8L254 -119L193 -102L224 4Q69 57 69 248Q69 373 140 446T336 519Q354 519 371 517L402 624L463 608L434 506Q558 467 570 331H425Q423 375 404 401L311 78Q321 76 332 76Q422 76 425 186H574V181Z"  />
<glyph unicode="&#xA3;" horiz-adv-x="628" d="M606 540H461Q460 647 366 647Q292 647 270 577Q259 542 259 445H410V351H259V97H576V0H45V97H113V351H26V445H113Q116 741 368 741Q602 741 606 540Z"  />
<glyph unicode="&#xA4;" horiz-adv-x="628" d="M565 183L497 114L431 180Q374 146 315 146Q255 146 198 180L131 114L63 182L129 248Q95 304 95 365Q95 424 129 483L63 548L131 616L197 550Q257 585 313 585Q371 585 432 550L497 615L564 548L499 482Q533 424 533 364Q533 305 499 248L565 183ZM432 364Q432 413 398 448T314 484Q265 484 231 449T196 364Q196 315 230 281T314 247Q363 247 397 281T432 364Z"  />
<glyph unicode="&#xA5;" horiz-adv-x="629" d="M633 723L433 361H558V284H388V226H558V150H388V0H234V150H65V226H234V284H65V361H193L-3 723H175L322 405L472 723H633Z"  />
<glyph unicode="&#xA6;" horiz-adv-x="264" d="M189 411H75V662H189V411ZM189 -88H75V161H189V-88Z"  />
<glyph unicode="&#xA7;" horiz-adv-x="634" d="M529 385Q529 300 432 253Q478 231 499 208Q524 178 524 133Q524 53 450 15Q393 -14 304 -14Q202 -14 125 7V99Q190 76 257 76Q372 76 372 135Q372 169 301 196Q181 240 171 246Q100 285 100 351Q100 436 208 490Q120 528 120 608Q120 681 186 715Q236 741 317 741Q379 741 471 724V631Q404 652 348 652Q267 652 267 601Q267 570 335 544Q444 502 461 492Q529 451 529 385ZM397 366Q397 399 362 424Q347 434 297 457Q234 417 234 376Q234 340 272 315Q290 303 341 284Q397 324 397 366Z"  />
<glyph unicode="&#xA8;" horiz-adv-x="319" d="M344 609H211V726H344V609ZM107 609H-24V726H107V609Z"  />
<glyph unicode="&#xA9;" horiz-adv-x="796" d="M776 363Q776 207 665 97T398 -14Q242 -14 131 96T20 363Q20 519 131 630T398 741Q555 741 665 631T776 363ZM720 363Q720 496 626 590T398 685Q264 685 170 591T76 363Q76 230 170 136T398 41Q531 41 625 135T720 363ZM566 274Q562 206 514 171Q470 140 400 140Q303 140 254 204Q209 261 209 361Q209 461 254 520Q304 586 401 586Q469 586 513 555Q562 520 563 454H475Q468 517 401 517Q298 517 298 360Q298 208 402 208Q469 208 478 274H566Z"  />
<glyph unicode="&#xAA;" horiz-adv-x="364" d="M326 431H233Q231 443 229 466Q191 425 133 425Q86 425 57 448Q25 473 25 519Q25 578 82 605Q126 626 195 626Q212 626 229 625Q228 658 222 670Q212 687 183 687Q133 687 136 643Q88 643 40 643Q40 681 71 709Q106 741 183 741Q268 741 300 701Q322 673 322 611Q322 591 321 556T319 506Q319 476 326 431ZM228 570Q120 570 120 525Q120 506 133 495T166 483Q228 483 228 570Z"  />
<glyph unicode="&#xAB;" horiz-adv-x="557" d="M515 61H396L279 257L396 451H514L405 255L515 61ZM277 61H159L42 257L158 451H277L168 255L277 61Z"  />
<glyph unicode="&#xAC;" horiz-adv-x="665" d="M595 95H480V315H70V426H595V95Z"  />
<glyph unicode="&#xAD;" horiz-adv-x="325" d="M299 217H26V313H299V217Z"  />
<glyph unicode="&#xAE;" horiz-adv-x="457" d="M417 552Q417 474 362 419T229 363Q151 363 96 418T40 552Q40 630 95 685T229 741Q307 741 362 686T417 552ZM382 552Q382 615 337 660T229 705Q166 705 121 660T76 552Q76 489 121 444T229 398Q292 398 337 443T382 552ZM315 451H265Q262 477 258 504Q253 535 228 535H196V451H150V655H241Q310 655 310 603Q310 562 264 554Q297 549 303 516T315 451ZM263 595Q263 623 223 623H196V566H225Q263 566 263 595Z"  />
<glyph unicode="&#xAF;" horiz-adv-x="308" d="M327 629H-7V698H327V629Z"  />
<glyph unicode="&#xB0;" horiz-adv-x="406" d="M367 576Q367 509 319 461T203 413Q135 413 87 460T39 576Q39 644 87 692T203 741Q271 741 319 693T367 576ZM278 576Q278 607 256 629T203 651Q172 651 150 629T128 576Q128 545 150 524T203 502Q234 502 256 524T278 576Z"  />
<glyph unicode="&#xB1;" horiz-adv-x="665" d="M595 277H390V120H276V277H70V387H276V550H390V387H595V277ZM595 -28H70V82H595V-28Z"  />
<glyph unicode="&#xB2;" horiz-adv-x="399" d="M358 315H31V392Q122 459 161 494Q250 573 250 619Q250 668 197 668Q141 668 141 608H37Q39 677 87 711Q130 741 201 741Q265 741 306 714Q355 683 355 623Q355 543 224 438Q204 422 165 391H358V315Z"  />
<glyph unicode="&#xB3;" horiz-adv-x="399" d="M367 430Q367 366 309 333Q262 307 193 307Q27 307 23 438H124Q125 378 192 378Q222 378 244 393T266 437Q266 493 178 494Q166 494 143 492V564Q158 562 172 562Q260 562 260 619Q260 643 239 658Q220 670 194 670Q135 670 132 613H31Q32 680 84 713Q128 741 197 741Q260 741 305 716Q360 685 360 626Q360 563 285 531Q367 505 367 430Z"  />
<glyph unicode="&#xB4;" horiz-adv-x="319" d="M337 735L173 590H72L176 735H337Z"  />
<glyph unicode="&#xB5;" horiz-adv-x="620" d="M530 0H433V64Q384 -8 308 -8Q239 -8 198 48V-210H90V504H202V253Q202 178 218 141Q242 84 306 84Q373 84 399 138Q418 176 418 251V504H530V0Z"  />
<glyph unicode="&#xB6;" horiz-adv-x="630" d="M547 0H438V633H337V0H228V309Q132 317 80 371T28 509Q28 616 103 672Q171 723 290 723H547V0Z"  />
<glyph unicode="&#xB7;" horiz-adv-x="314" d="M229 240H86V367H229V240Z"  />
<glyph unicode="&#xB8;" horiz-adv-x="319" d="M270 -126Q270 -206 145 -206Q89 -206 36 -185L47 -145Q97 -169 139 -169Q192 -169 192 -130Q192 -92 141 -92Q129 -92 111 -98L91 -85L138 8H179L149 -58Q175 -54 187 -54Q222 -54 246 -72T270 -126Z"  />
<glyph unicode="&#xB9;" horiz-adv-x="399" d="M274 307H173V622Q131 594 73 575V657Q135 677 188 723H274V307Z"  />
<glyph unicode="&#xBA;" horiz-adv-x="396" d="M366 583Q366 507 321 466T198 425Q121 425 77 465Q30 507 30 582Q30 657 76 699T198 741Q274 741 320 700T366 583ZM266 583Q266 680 198 680Q130 680 130 583Q130 485 198 485Q266 485 266 583Z"  />
<glyph unicode="&#xBB;" horiz-adv-x="557" d="M515 255L399 61H280L389 257L279 451H398L515 255ZM277 255L161 61H42L151 257L42 451H160L277 255Z"  />
<glyph unicode="&#xBC;" horiz-adv-x="970" d="M950 85H883V0H787V85H587V168L768 418H883V155H950V85ZM736 755L327 -26H233L644 755H736ZM277 306H175V622Q130 591 76 574V657Q137 677 190 723H277V306ZM789 155V324L666 155H789Z"  />
<glyph unicode="&#xBD;" horiz-adv-x="970" d="M926 0H599V77Q691 145 728 179Q817 259 817 305Q817 353 765 353Q709 353 709 293H605Q607 362 655 397Q698 427 769 427Q833 427 874 401Q923 369 923 309Q923 229 791 123Q778 113 732 77H926V0ZM736 755L327 -26H233L644 755H736ZM277 306H175V622Q130 591 76 574V657Q137 677 190 723H277V306Z"  />
<glyph unicode="&#xBE;" horiz-adv-x="970" d="M951 85H883V0H787V85H587V168L769 418H883V155H951V85ZM737 755L327 -26H234L644 755H737ZM370 429Q370 365 312 332Q265 306 195 306Q29 306 25 438H127Q128 378 195 378Q225 378 246 393T268 436Q268 494 180 494Q168 494 146 492V564Q161 562 175 562Q262 562 262 619Q262 643 241 658Q223 670 197 670Q138 670 135 613H33Q34 680 87 713Q130 741 200 741Q263 741 308 716Q362 685 362 626Q362 563 287 531Q370 505 370 429ZM789 155V324L666 155H789Z"  />
<glyph unicode="&#xBF;" horiz-adv-x="542" d="M381 380H238V508H381V380ZM449 -217Q375 -231 309 -231Q48 -231 48 -41Q48 21 96 76Q116 99 195 164Q227 190 235 204Q247 223 247 258V307H370V238Q370 198 356 177T297 115Q250 71 233 48Q203 9 203 -26Q203 -129 345 -129Q390 -129 449 -112V-217Z"  />
<glyph unicode="&#xC0;" horiz-adv-x="758" d="M763 0H590L528 166H212L150 0H-4L288 723H465L763 0ZM487 272L371 611L250 272H487ZM460 776H362L197 921H360L460 776Z"  />
<glyph unicode="&#xC1;" horiz-adv-x="758" d="M763 0H590L528 166H212L150 0H-4L288 723H465L763 0ZM487 272L371 611L250 272H487ZM550 921L386 776H285L389 921H550Z"  />
<glyph unicode="&#xC2;" horiz-adv-x="758" d="M763 0H590L528 166H212L150 0H-4L288 723H465L763 0ZM487 272L371 611L250 272H487ZM553 776H452L373 863L293 776H193L305 922H441L553 776Z"  />
<glyph unicode="&#xC3;" horiz-adv-x="758" d="M763 0H590L528 166H212L150 0H-4L288 723H465L763 0ZM487 272L371 611L250 272H487ZM565 912Q559 862 528 827Q493 789 445 789Q419 789 369 805T293 822Q256 822 245 786H182Q187 838 221 873T307 909Q334 909 385 892T460 874Q491 874 498 912H565Z"  />
<glyph unicode="&#xC4;" horiz-adv-x="758" d="M763 0H590L528 166H212L150 0H-4L288 723H465L763 0ZM487 272L371 611L250 272H487ZM557 785H424V902H557V785ZM320 785H189V902H320V785Z"  />
<glyph unicode="&#xC5;" horiz-adv-x="758" d="M763 0H590L528 166H212L150 0H-4L288 723H465L763 0ZM487 272L371 611L250 272H487ZM476 852Q476 808 446 778T372 748Q329 748 299 778T268 852Q268 895 298 925T372 956Q415 956 445 926T476 852ZM427 852Q427 875 411 891T373 907Q350 907 334 891T317 852Q317 829 333 813T373 797Q396 797 411 813T427 852Z"  />
<glyph unicode="&#xC6;" horiz-adv-x="977" d="M937 0H515L492 164H225L149 0H-6L346 723H927V610H588L613 423H908V311H627L653 113H937V0ZM481 270L435 620L433 619L270 270H481Z"  />
<glyph unicode="&#xC7;" horiz-adv-x="719" d="M681 212Q668 98 583 39Q507 -11 386 -12L365 -58Q391 -54 403 -54Q438 -54 462 -72T487 -126Q487 -206 362 -206Q306 -206 253 -185L263 -145Q313 -169 356 -169Q408 -169 408 -130Q408 -92 358 -92Q346 -92 328 -98L308 -85L345 -10Q195 0 117 100Q44 195 44 356Q44 526 132 628Q224 737 391 737Q510 737 587 685Q675 624 677 510H518Q513 563 479 592T390 621Q293 621 244 530Q205 457 205 351Q205 249 244 182Q291 100 385 100Q440 100 476 129T521 212H681Z"  />
<glyph unicode="&#xC8;" horiz-adv-x="622" d="M582 0H83V723H572V611H237V423H554V312H237V112H582V0ZM419 776H321L156 921H319L419 776Z"  />
<glyph unicode="&#xC9;" horiz-adv-x="622" d="M582 0H83V723H572V611H237V423H554V312H237V112H582V0ZM509 921L345 776H244L348 921H509Z"  />
<glyph unicode="&#xCA;" horiz-adv-x="622" d="M582 0H83V723H572V611H237V423H554V312H237V112H582V0ZM512 776H411L332 863L252 776H152L264 922H400L512 776Z"  />
<glyph unicode="&#xCB;" horiz-adv-x="622" d="M582 0H83V723H572V611H237V423H554V312H237V112H582V0ZM516 785H383V902H516V785ZM279 785H148V902H279V785Z"  />
<glyph unicode="&#xCC;" horiz-adv-x="323" d="M240 0H83V723H240V0ZM249 776H151L-14 921H149L249 776Z"  />
<glyph unicode="&#xCD;" horiz-adv-x="323" d="M240 0H83V723H240V0ZM339 921L175 776H74L178 921H339Z"  />
<glyph unicode="&#xCE;" horiz-adv-x="323" d="M240 0H83V723H240V0ZM342 776H241L162 863L82 776H-18L94 922H230L342 776Z"  />
<glyph unicode="&#xCF;" horiz-adv-x="323" d="M240 0H83V723H240V0ZM346 785H213V902H346V785ZM109 785H-22V902H109V785Z"  />
<glyph unicode="&#xD0;" horiz-adv-x="780" d="M736 365Q736 46 442 7Q389 0 309 0H83V352H19V438H83V723H333Q408 723 449 717Q586 697 663 599Q736 505 736 365ZM575 364Q575 520 477 581Q427 612 320 612H240V438H408V352H240V111H314Q393 111 426 135Q575 167 575 364Z"  />
<glyph unicode="&#xD1;" horiz-adv-x="799" d="M716 0H496L218 596V0H83V723H303L581 126V723H716V0ZM585 912Q579 862 548 827Q513 789 465 789Q439 789 389 805T313 822Q276 822 265 786H202Q207 838 241 873T327 909Q354 909 405 892T480 874Q511 874 518 912H585Z"  />
<glyph unicode="&#xD2;" horiz-adv-x="779" d="M735 362Q735 194 648 92Q555 -14 388 -14Q220 -14 129 90Q44 189 44 360Q44 531 131 632Q223 741 391 741Q560 741 650 634Q735 534 735 362ZM577 365Q577 473 537 542Q488 626 388 626Q290 626 241 541Q202 472 202 365Q202 254 239 186Q286 101 388 101Q490 101 538 186Q577 254 577 365ZM477 776H379L214 921H377L477 776Z"  />
<glyph unicode="&#xD3;" horiz-adv-x="779" d="M735 362Q735 194 648 92Q555 -14 388 -14Q220 -14 129 90Q44 189 44 360Q44 531 131 632Q223 741 391 741Q560 741 650 634Q735 534 735 362ZM577 365Q577 473 537 542Q488 626 388 626Q290 626 241 541Q202 472 202 365Q202 254 239 186Q286 101 388 101Q490 101 538 186Q577 254 577 365ZM567 921L403 776H302L406 921H567Z"  />
<glyph unicode="&#xD4;" horiz-adv-x="779" d="M735 362Q735 194 648 92Q555 -14 388 -14Q220 -14 129 90Q44 189 44 360Q44 531 131 632Q223 741 391 741Q560 741 650 634Q735 534 735 362ZM577 365Q577 473 537 542Q488 626 388 626Q290 626 241 541Q202 472 202 365Q202 254 239 186Q286 101 388 101Q490 101 538 186Q577 254 577 365ZM570 776H469L390 863L310 776H210L322 922H458L570 776Z"  />
<glyph unicode="&#xD5;" horiz-adv-x="779" d="M735 362Q735 194 648 92Q555 -14 388 -14Q220 -14 129 90Q44 189 44 360Q44 531 131 632Q223 741 391 741Q560 741 650 634Q735 534 735 362ZM577 365Q577 473 537 542Q488 626 388 626Q290 626 241 541Q202 472 202 365Q202 254 239 186Q286 101 388 101Q490 101 538 186Q577 254 577 365ZM582 912Q576 862 545 827Q510 789 462 789Q436 789 386 805T310 822Q273 822 262 786H199Q204 838 238 873T324 909Q351 909 402 892T477 874Q508 874 515 912H582Z"  />
<glyph unicode="&#xD6;" horiz-adv-x="779" d="M735 362Q735 194 648 92Q555 -14 388 -14Q220 -14 129 90Q44 189 44 360Q44 531 131 632Q223 741 391 741Q560 741 650 634Q735 534 735 362ZM577 365Q577 473 537 542Q488 626 388 626Q290 626 241 541Q202 472 202 365Q202 254 239 186Q286 101 388 101Q490 101 538 186Q577 254 577 365ZM574 785H441V902H574V785ZM337 785H206V902H337V785Z"  />
<glyph unicode="&#xD7;" horiz-adv-x="666" d="M586 85L508 7L333 182L159 7L80 85L255 260L80 435L159 514L333 339L507 513L586 435L412 260L586 85Z"  />
<glyph unicode="&#xD8;" horiz-adv-x="779" d="M772 701L674 600Q736 499 736 360Q736 192 648 92Q556 -14 390 -14Q248 -14 160 61L63 -39L8 16L108 120Q44 219 44 361Q44 531 131 633Q224 741 392 741Q535 741 624 661L717 757L772 701ZM525 558Q474 626 390 626Q291 626 242 540Q203 470 203 362Q203 291 222 237L525 558ZM577 365Q577 420 558 480L257 161Q307 100 389 100Q491 100 539 186Q577 254 577 365Z"  />
<glyph unicode="&#xD9;" horiz-adv-x="795" d="M715 301Q715 -15 395 -15Q191 -15 119 110Q80 178 80 305V723H241V297Q241 203 272 156Q309 99 399 99Q559 99 559 301V723H715V301ZM487 776H389L224 921H387L487 776Z"  />
<glyph unicode="&#xDA;" horiz-adv-x="795" d="M715 301Q715 -15 395 -15Q191 -15 119 110Q80 178 80 305V723H241V297Q241 203 272 156Q309 99 399 99Q559 99 559 301V723H715V301ZM577 921L413 776H312L416 921H577Z"  />
<glyph unicode="&#xDB;" horiz-adv-x="795" d="M715 301Q715 -15 395 -15Q191 -15 119 110Q80 178 80 305V723H241V297Q241 203 272 156Q309 99 399 99Q559 99 559 301V723H715V301ZM580 776H479L400 863L320 776H220L332 922H468L580 776Z"  />
<glyph unicode="&#xDC;" horiz-adv-x="795" d="M715 301Q715 -15 395 -15Q191 -15 119 110Q80 178 80 305V723H241V297Q241 203 272 156Q309 99 399 99Q559 99 559 301V723H715V301ZM584 785H451V902H584V785ZM347 785H216V902H347V785Z"  />
<glyph unicode="&#xDD;" horiz-adv-x="688" d="M703 724L423 281V0H266V281L-14 724H168L350 389L534 724H703ZM526 921L362 776H261L365 921H526Z"  />
<glyph unicode="&#xDE;" horiz-adv-x="665" d="M639 389Q639 323 606 271T513 194Q461 172 330 172H240V0H83V723H240V614H317Q485 614 547 572Q639 510 639 389ZM480 397Q480 504 332 504H240V282H321Q480 282 480 397Z"  />
<glyph unicode="&#xDF;" horiz-adv-x="707" d="M679 163Q679 78 613 31Q555 -10 466 -10Q271 -10 267 147H398Q398 74 466 74Q500 74 520 97T540 154Q540 203 468 243Q372 297 368 300Q315 339 315 395Q315 438 350 471Q382 498 414 526Q434 548 434 568Q434 608 405 629T335 650Q264 650 235 601Q213 563 213 488V0H69V453Q69 525 76 562Q88 619 124 658Q196 736 337 736Q432 736 495 703Q575 661 575 574Q575 528 541 497Q509 470 476 444Q459 427 459 407Q459 371 527 334L568 312Q679 251 679 163Z"  />
<glyph unicode="&#xE0;" horiz-adv-x="572" d="M517 0H379Q369 29 367 69Q314 -9 206 -9Q128 -9 81 27Q30 68 30 144Q30 315 326 315H367V334Q367 439 291 439Q213 439 213 360H64Q65 445 137 486Q196 519 289 519Q402 519 450 483Q509 439 509 323V173Q509 62 517 0ZM367 235Q367 244 363 244Q360 244 348 245Q336 245 329 245Q174 245 174 152Q174 118 198 98T256 77Q367 77 367 235ZM369 590H271L106 735H269L369 590Z"  />
<glyph unicode="&#xE1;" horiz-adv-x="572" d="M517 0H379Q369 29 367 69Q314 -9 206 -9Q128 -9 81 27Q30 68 30 144Q30 315 326 315H367V334Q367 439 291 439Q213 439 213 360H64Q65 445 137 486Q196 519 289 519Q402 519 450 483Q509 439 509 323V173Q509 62 517 0ZM367 235Q367 244 363 244Q360 244 348 245Q336 245 329 245Q174 245 174 152Q174 118 198 98T256 77Q367 77 367 235ZM469 735L305 590H204L308 735H469Z"  />
<glyph unicode="&#xE2;" horiz-adv-x="572" d="M517 0H379Q369 29 367 69Q314 -9 206 -9Q128 -9 81 27Q30 68 30 144Q30 315 326 315H367V334Q367 439 291 439Q213 439 213 360H64Q65 445 137 486Q196 519 289 519Q402 519 450 483Q509 439 509 323V173Q509 62 517 0ZM367 235Q367 244 363 244Q360 244 348 245Q336 245 329 245Q174 245 174 152Q174 118 198 98T256 77Q367 77 367 235ZM472 590H371L292 677L212 590H112L224 736H360L472 590Z"  />
<glyph unicode="&#xE3;" horiz-adv-x="572" d="M517 0H379Q369 29 367 69Q314 -9 206 -9Q128 -9 81 27Q30 68 30 144Q30 315 326 315H367V334Q367 439 291 439Q213 439 213 360H64Q65 445 137 486Q196 519 289 519Q402 519 450 483Q509 439 509 323V173Q509 62 517 0ZM367 235Q367 244 363 244Q360 244 348 245Q336 245 329 245Q174 245 174 152Q174 118 198 98T256 77Q367 77 367 235ZM482 726Q476 676 445 641Q410 603 362 603Q336 603 286 619T210 636Q173 636 162 600H99Q104 652 138 687T224 723Q251 723 302 706T377 688Q408 688 415 726H482Z"  />
<glyph unicode="&#xE4;" horiz-adv-x="572" d="M517 0H379Q369 29 367 69Q314 -9 206 -9Q128 -9 81 27Q30 68 30 144Q30 315 326 315H367V334Q367 439 291 439Q213 439 213 360H64Q65 445 137 486Q196 519 289 519Q402 519 450 483Q509 439 509 323V173Q509 62 517 0ZM367 235Q367 244 363 244Q360 244 348 245Q336 245 329 245Q174 245 174 152Q174 118 198 98T256 77Q367 77 367 235ZM476 609H343V726H476V609ZM239 609H108V726H239V609Z"  />
<glyph unicode="&#xE5;" horiz-adv-x="572" d="M517 0H379Q369 29 367 69Q314 -9 206 -9Q128 -9 81 27Q30 68 30 144Q30 315 326 315H367V334Q367 439 291 439Q213 439 213 360H64Q65 445 137 486Q196 519 289 519Q402 519 450 483Q509 439 509 323V173Q509 62 517 0ZM367 235Q367 244 363 244Q360 244 348 245Q336 245 329 245Q174 245 174 152Q174 118 198 98T256 77Q367 77 367 235ZM395 676Q395 632 365 602T291 572Q248 572 218 602T187 676Q187 719 217 749T291 780Q334 780 364 750T395 676ZM346 676Q346 699 330 715T292 731Q269 731 253 715T236 676Q236 653 252 637T292 621Q315 621 330 637T346 676Z"  />
<glyph unicode="&#xE6;" horiz-adv-x="893" d="M858 228H504Q504 70 613 70Q704 70 713 164H851Q841 75 776 30Q719 -10 626 -10Q478 -10 429 96Q371 -9 227 -9Q147 -9 91 26Q26 68 26 144Q26 292 265 305Q302 307 369 307Q369 370 356 397Q336 438 281 438Q244 438 221 418T197 365H59Q59 444 133 484Q192 517 275 517Q338 517 376 501Q419 483 450 437Q511 520 629 520Q858 520 858 228ZM719 306Q714 438 615 438Q513 438 505 306H719ZM369 202Q369 231 317 231Q171 231 171 144Q171 108 195 88T256 67Q313 67 342 107Q369 143 369 202Z"  />
<glyph unicode="&#xE7;" horiz-adv-x="561" d="M538 181Q538 88 466 36Q403 -8 307 -11L286 -58Q312 -54 324 -54Q359 -54 383 -72T407 -126Q407 -206 282 -206Q226 -206 173 -185L184 -145Q234 -169 276 -169Q329 -169 329 -130Q329 -92 278 -92Q266 -92 248 -98L228 -85L266 -10Q156 -2 96 65T35 248Q35 373 106 446T302 519Q401 519 461 475Q527 427 535 332H392Q389 433 301 433Q185 433 185 255Q185 74 298 74Q390 74 392 185H538V181Z"  />
<glyph unicode="&#xE8;" horiz-adv-x="576" d="M541 224H177Q177 161 203 122Q233 76 293 76Q383 76 394 164H536Q523 72 451 28Q389 -10 291 -10Q168 -10 102 56T35 244Q35 372 102 445T296 518Q463 518 519 384Q541 332 541 224ZM400 308Q400 432 295 432Q242 432 211 398T180 308H400ZM381 590H283L118 735H281L381 590Z"  />
<glyph unicode="&#xE9;" horiz-adv-x="576" d="M541 224H177Q177 161 203 122Q233 76 293 76Q383 76 394 164H536Q523 72 451 28Q389 -10 291 -10Q168 -10 102 56T35 244Q35 372 102 445T296 518Q463 518 519 384Q541 332 541 224ZM400 308Q400 432 295 432Q242 432 211 398T180 308H400ZM471 735L307 590H206L310 735H471Z"  />
<glyph unicode="&#xEA;" horiz-adv-x="576" d="M541 224H177Q177 161 203 122Q233 76 293 76Q383 76 394 164H536Q523 72 451 28Q389 -10 291 -10Q168 -10 102 56T35 244Q35 372 102 445T296 518Q463 518 519 384Q541 332 541 224ZM400 308Q400 432 295 432Q242 432 211 398T180 308H400ZM474 590H373L294 677L214 590H114L226 736H362L474 590Z"  />
<glyph unicode="&#xEB;" horiz-adv-x="576" d="M541 224H177Q177 161 203 122Q233 76 293 76Q383 76 394 164H536Q523 72 451 28Q389 -10 291 -10Q168 -10 102 56T35 244Q35 372 102 445T296 518Q463 518 519 384Q541 332 541 224ZM400 308Q400 432 295 432Q242 432 211 398T180 308H400ZM478 609H345V726H478V609ZM241 609H110V726H241V609Z"  />
<glyph unicode="&#xEC;" horiz-adv-x="284" d="M215 0H69V504H215V0ZM231 590H133L-32 735H131L231 590Z"  />
<glyph unicode="&#xED;" horiz-adv-x="284" d="M215 0H69V504H215V0ZM321 735L157 590H56L160 735H321Z"  />
<glyph unicode="&#xEE;" horiz-adv-x="284" d="M215 0H69V504H215V0ZM324 590H223L144 677L64 590H-36L76 736H212L324 590Z"  />
<glyph unicode="&#xEF;" horiz-adv-x="284" d="M215 0H69V504H215V0ZM328 609H195V726H328V609ZM91 609H-40V726H91V609Z"  />
<glyph unicode="&#xF0;" horiz-adv-x="615" d="M580 306Q580 161 517 79Q446 -10 306 -10Q184 -10 111 56Q35 125 35 247Q35 354 101 422T275 491Q364 491 420 425Q381 540 257 604L183 549L136 577L203 627Q163 642 115 655L169 754Q247 736 308 710L374 757L419 729L360 687Q580 568 580 306ZM430 253Q430 321 403 363Q371 412 307 412Q242 412 209 359Q183 315 183 245Q183 174 208 129Q240 73 306 73Q430 73 430 253Z"  />
<glyph unicode="&#xF1;" horiz-adv-x="631" d="M562 0H416V267Q416 336 402 367Q381 414 321 414Q261 414 234 355Q215 314 215 254V0H69V405Q69 457 65 504H210L212 427Q278 512 378 512Q562 512 562 326V0ZM508 726Q502 676 471 641Q436 603 388 603Q362 603 312 619T236 636Q199 636 188 600H125Q130 652 164 687T250 723Q277 723 328 706T403 688Q434 688 441 726H508Z"  />
<glyph unicode="&#xF2;" horiz-adv-x="618" d="M583 254Q583 129 509 59T308 -11Q181 -11 108 58T35 254Q35 378 111 448T312 518Q438 518 510 449T583 254ZM431 253Q431 326 406 372Q374 430 308 430Q187 430 187 253Q187 75 308 75Q374 75 406 134Q431 181 431 253ZM396 590H298L133 735H296L396 590Z"  />
<glyph unicode="&#xF3;" horiz-adv-x="618" d="M583 254Q583 129 509 59T308 -11Q181 -11 108 58T35 254Q35 378 111 448T312 518Q438 518 510 449T583 254ZM431 253Q431 326 406 372Q374 430 308 430Q187 430 187 253Q187 75 308 75Q374 75 406 134Q431 181 431 253ZM486 735L322 590H221L325 735H486Z"  />
<glyph unicode="&#xF4;" horiz-adv-x="618" d="M583 254Q583 129 509 59T308 -11Q181 -11 108 58T35 254Q35 378 111 448T312 518Q438 518 510 449T583 254ZM431 253Q431 326 406 372Q374 430 308 430Q187 430 187 253Q187 75 308 75Q374 75 406 134Q431 181 431 253ZM489 590H388L309 677L229 590H129L241 736H377L489 590Z"  />
<glyph unicode="&#xF5;" horiz-adv-x="618" d="M583 254Q583 129 509 59T308 -11Q181 -11 108 58T35 254Q35 378 111 448T312 518Q438 518 510 449T583 254ZM431 253Q431 326 406 372Q374 430 308 430Q187 430 187 253Q187 75 308 75Q374 75 406 134Q431 181 431 253ZM499 726Q493 676 462 641Q427 603 379 603Q353 603 303 619T227 636Q190 636 179 600H116Q121 652 155 687T241 723Q268 723 319 706T394 688Q425 688 432 726H499Z"  />
<glyph unicode="&#xF6;" horiz-adv-x="618" d="M583 254Q583 129 509 59T308 -11Q181 -11 108 58T35 254Q35 378 111 448T312 518Q438 518 510 449T583 254ZM431 253Q431 326 406 372Q374 430 308 430Q187 430 187 253Q187 75 308 75Q374 75 406 134Q431 181 431 253ZM493 609H360V726H493V609ZM256 609H125V726H256V609Z"  />
<glyph unicode="&#xF7;" horiz-adv-x="665" d="M398 379H268V514H398V379ZM595 205H70V316H595V205ZM398 6H268V140H398V6Z"  />
<glyph unicode="&#xF8;" horiz-adv-x="618" d="M583 254Q583 129 509 59T308 -11Q222 -11 159 21L86 -66L42 -28L111 55Q35 125 35 254Q35 378 111 448T312 518Q401 518 465 482L530 561L577 523L513 446Q583 376 583 254ZM391 393Q360 430 308 430Q187 430 187 253Q187 201 200 161L391 393ZM431 253Q431 299 421 335L230 106Q260 75 308 75Q374 75 406 134Q431 181 431 253Z"  />
<glyph unicode="&#xF9;" horiz-adv-x="630" d="M566 0H420L418 77Q352 -7 253 -7Q69 -7 69 178V504H215V236Q215 166 228 136Q249 89 309 89Q417 89 417 243V504H563V186Q563 65 566 0ZM405 590H307L142 735H305L405 590Z"  />
<glyph unicode="&#xFA;" horiz-adv-x="630" d="M566 0H420L418 77Q352 -7 253 -7Q69 -7 69 178V504H215V236Q215 166 228 136Q249 89 309 89Q417 89 417 243V504H563V186Q563 65 566 0ZM495 735L331 590H230L334 735H495Z"  />
<glyph unicode="&#xFB;" horiz-adv-x="630" d="M566 0H420L418 77Q352 -7 253 -7Q69 -7 69 178V504H215V236Q215 166 228 136Q249 89 309 89Q417 89 417 243V504H563V186Q563 65 566 0ZM498 590H397L318 677L238 590H138L250 736H386L498 590Z"  />
<glyph unicode="&#xFC;" horiz-adv-x="630" d="M566 0H420L418 77Q352 -7 253 -7Q69 -7 69 178V504H215V236Q215 166 228 136Q249 89 309 89Q417 89 417 243V504H563V186Q563 65 566 0ZM502 609H369V726H502V609ZM265 609H134V726H265V609Z"  />
<glyph unicode="&#xFD;" horiz-adv-x="573" d="M573 504L287 -189H148L228 -2L0 504H164L299 127L429 504H573ZM473 735L309 590H208L312 735H473Z"  />
<glyph unicode="&#xFE;" horiz-adv-x="635" d="M596 261Q596 147 541 73Q480 -9 370 -9Q277 -9 215 66V-189H69V723H215V432Q277 516 378 516Q484 516 543 439Q596 370 596 261ZM446 259Q446 327 423 371Q393 427 332 427Q267 427 237 370Q213 325 213 253Q213 184 234 140Q263 82 324 82Q390 82 422 140Q446 186 446 259Z"  />
<glyph unicode="&#xFF;" horiz-adv-x="573" d="M573 504L287 -189H148L228 -2L0 504H164L299 127L429 504H573ZM480 609H347V726H480V609ZM243 609H112V726H243V609Z"  />
<glyph unicode="&#x100;" horiz-adv-x="758" d="M763 0H590L528 166H212L150 0H-4L288 723H465L763 0ZM487 272L371 611L250 272H487ZM534 805H200V874H534V805Z"  />
<glyph unicode="&#x101;" horiz-adv-x="572" d="M517 0H379Q369 29 367 69Q314 -9 206 -9Q128 -9 81 27Q30 68 30 144Q30 315 326 315H367V334Q367 439 291 439Q213 439 213 360H64Q65 445 137 486Q196 519 289 519Q402 519 450 483Q509 439 509 323V173Q509 62 517 0ZM367 235Q367 244 363 244Q360 244 348 245Q336 245 329 245Q174 245 174 152Q174 118 198 98T256 77Q367 77 367 235ZM459 629H125V698H459V629Z"  />
<glyph unicode="&#x102;" horiz-adv-x="758" d="M763 0H590L528 166H212L150 0H-4L288 723H465L763 0ZM487 272L371 611L250 272H487ZM542 909Q526 774 373 774Q305 774 261 802Q211 834 206 898Q205 900 205 909H264Q275 845 374 845Q463 845 485 909H542Z"  />
<glyph unicode="&#x103;" horiz-adv-x="572" d="M517 0H379Q369 29 367 69Q314 -9 206 -9Q128 -9 81 27Q30 68 30 144Q30 315 326 315H367V334Q367 439 291 439Q213 439 213 360H64Q65 445 137 486Q196 519 289 519Q402 519 450 483Q509 439 509 323V173Q509 62 517 0ZM367 235Q367 244 363 244Q360 244 348 245Q336 245 329 245Q174 245 174 152Q174 118 198 98T256 77Q367 77 367 235ZM461 723Q445 588 292 588Q224 588 180 616Q130 648 125 712Q124 714 124 723H183Q194 659 293 659Q382 659 404 723H461Z"  />
<glyph unicode="&#x104;" horiz-adv-x="758" d="M771 -180Q722 -203 685 -203Q645 -203 619 -186Q589 -166 589 -128Q589 -56 695 0H590L528 166H212L150 0H-4L288 723H465L763 0Q719 -22 702 -37Q670 -64 670 -97Q670 -151 728 -151Q744 -151 768 -139L771 -180ZM487 272L371 611L250 272H487Z"  />
<glyph unicode="&#x105;" horiz-adv-x="572" d="M525 -180Q476 -203 439 -203Q399 -203 373 -186Q343 -166 343 -128Q343 -56 449 0H379Q369 29 367 69Q314 -9 206 -9Q128 -9 81 27Q30 68 30 144Q30 315 326 315H367V334Q367 439 291 439Q213 439 213 360H64Q65 445 137 486Q196 519 289 519Q402 519 450 483Q509 439 509 323V173Q509 62 517 0Q473 -22 456 -37Q424 -64 424 -97Q424 -151 482 -151Q498 -151 522 -139L525 -180ZM367 235Q367 244 363 244Q360 244 348 245H329Q174 245 174 152Q174 118 198 98T256 77Q367 77 367 235Z"  />
<glyph unicode="&#x106;" horiz-adv-x="719" d="M682 213Q669 97 581 38Q504 -12 382 -12Q213 -12 126 89Q44 184 44 356Q44 526 131 628Q223 737 390 737Q509 737 586 685Q675 624 678 509H516Q504 619 390 619Q294 619 245 529Q206 456 206 351Q206 250 244 184Q292 102 385 102Q503 102 519 213H682ZM565 921L401 776H300L404 921H565Z"  />
<glyph unicode="&#x107;" horiz-adv-x="561" d="M540 181Q540 86 463 33Q397 -11 297 -11Q173 -11 104 56T35 248Q35 373 106 446T302 519Q401 519 461 475Q528 427 536 331H391Q387 432 301 432Q187 432 187 255Q187 76 298 76Q388 76 391 186H540V181ZM476 735L312 590H211L315 735H476Z"  />
<glyph unicode="&#x108;" horiz-adv-x="719" d="M682 213Q669 97 581 38Q504 -12 382 -12Q213 -12 126 89Q44 184 44 356Q44 526 131 628Q223 737 390 737Q509 737 586 685Q675 624 678 509H516Q504 619 390 619Q294 619 245 529Q206 456 206 351Q206 250 244 184Q292 102 385 102Q503 102 519 213H682ZM568 776H467L388 863L308 776H208L320 922H456L568 776Z"  />
<glyph unicode="&#x109;" horiz-adv-x="561" d="M540 181Q540 86 463 33Q397 -11 297 -11Q173 -11 104 56T35 248Q35 373 106 446T302 519Q401 519 461 475Q528 427 536 331H391Q387 432 301 432Q187 432 187 255Q187 76 298 76Q388 76 391 186H540V181ZM479 590H378L299 677L219 590H119L231 736H367L479 590Z"  />
<glyph unicode="&#x10A;" horiz-adv-x="719" d="M682 213Q669 97 581 38Q504 -12 382 -12Q213 -12 126 89Q44 184 44 356Q44 526 131 628Q223 737 390 737Q509 737 586 685Q675 624 678 509H516Q504 619 390 619Q294 619 245 529Q206 456 206 351Q206 250 244 184Q292 102 385 102Q503 102 519 213H682ZM454 785H322V902H454V785Z"  />
<glyph unicode="&#x10B;" horiz-adv-x="561" d="M540 181Q540 86 463 33Q397 -11 297 -11Q173 -11 104 56T35 248Q35 373 106 446T302 519Q401 519 461 475Q528 427 536 331H391Q387 432 301 432Q187 432 187 255Q187 76 298 76Q388 76 391 186H540V181ZM365 609H233V726H365V609Z"  />
<glyph unicode="&#x10C;" horiz-adv-x="719" d="M682 213Q669 97 581 38Q504 -12 382 -12Q213 -12 126 89Q44 184 44 356Q44 526 131 628Q223 737 390 737Q509 737 586 685Q675 624 678 509H516Q504 619 390 619Q294 619 245 529Q206 456 206 351Q206 250 244 184Q292 102 385 102Q503 102 519 213H682ZM568 921L455 776H319L208 921H305L388 832L468 921H568Z"  />
<glyph unicode="&#x10D;" horiz-adv-x="561" d="M540 181Q540 86 463 33Q397 -11 297 -11Q173 -11 104 56T35 248Q35 373 106 446T302 519Q401 519 461 475Q528 427 536 331H391Q387 432 301 432Q187 432 187 255Q187 76 298 76Q388 76 391 186H540V181ZM479 735L366 590H230L119 735H216L299 646L379 735H479Z"  />
<glyph unicode="&#x10E;" horiz-adv-x="780" d="M736 365Q736 159 617 73Q516 0 310 0H83V723H334Q736 723 736 365ZM575 363Q575 496 513 554T320 612H240V111H314Q449 111 512 171T575 363ZM573 921L460 776H324L213 921H310L393 832L473 921H573Z"  />
<glyph unicode="&#x10F;" horiz-adv-x="631" d="M566 0H419L415 67Q350 -9 258 -9Q149 -9 89 68Q35 139 35 251Q35 359 85 431Q144 516 253 516Q356 516 416 440V723H562V135Q562 42 566 0ZM419 254Q419 323 392 369Q359 424 295 424Q184 424 184 257Q184 84 303 84Q364 84 395 141Q419 187 419 254ZM773 725L710 527H611L643 725H773Z"  />
<glyph unicode="&#x110;" horiz-adv-x="780" d="M736 365Q736 46 442 7Q389 0 309 0H83V352H19V438H83V723H333Q408 723 449 717Q586 697 663 599Q736 505 736 365ZM575 364Q575 520 477 581Q427 612 320 612H240V438H408V352H240V111H314Q393 111 426 135Q575 167 575 364Z"  />
<glyph unicode="&#x111;" horiz-adv-x="631" d="M631 656V560H562V135Q562 42 566 0H419L415 67Q350 -9 258 -9Q149 -9 89 68Q35 139 35 251Q35 359 85 431Q144 516 253 516Q356 516 416 440V560H193V656H416V723H562V656H631ZM419 254Q419 323 392 369Q359 424 295 424Q184 424 184 257Q184 84 303 84Q364 84 395 141Q419 187 419 254Z"  />
<glyph unicode="&#x112;" horiz-adv-x="622" d="M582 0H83V723H572V611H237V423H554V312H237V112H582V0ZM493 805H159V874H493V805Z"  />
<glyph unicode="&#x113;" horiz-adv-x="576" d="M541 224H177Q177 161 203 122Q233 76 293 76Q383 76 394 164H536Q523 72 451 28Q389 -10 291 -10Q168 -10 102 56T35 244Q35 372 102 445T296 518Q463 518 519 384Q541 332 541 224ZM400 308Q400 432 295 432Q242 432 211 398T180 308H400ZM461 629H127V698H461V629Z"  />
<glyph unicode="&#x114;" horiz-adv-x="622" d="M582 0H83V723H572V611H237V423H554V312H237V112H582V0ZM501 909Q485 774 332 774Q264 774 220 802Q170 834 165 898Q164 900 164 909H223Q234 845 333 845Q422 845 444 909H501Z"  />
<glyph unicode="&#x115;" horiz-adv-x="576" d="M541 224H177Q177 161 203 122Q233 76 293 76Q383 76 394 164H536Q523 72 451 28Q389 -10 291 -10Q168 -10 102 56T35 244Q35 372 102 445T296 518Q463 518 519 384Q541 332 541 224ZM400 308Q400 432 295 432Q242 432 211 398T180 308H400ZM463 723Q447 588 294 588Q226 588 182 616Q132 648 127 712Q126 714 126 723H185Q196 659 295 659Q384 659 406 723H463Z"  />
<glyph unicode="&#x116;" horiz-adv-x="622" d="M582 0H83V723H572V611H237V423H554V312H237V112H582V0ZM398 785H266V902H398V785Z"  />
<glyph unicode="&#x117;" horiz-adv-x="576" d="M541 224H177Q177 161 203 122Q233 76 293 76Q383 76 394 164H536Q523 72 451 28Q389 -10 291 -10Q168 -10 102 56T35 244Q35 372 102 445T296 518Q463 518 519 384Q541 332 541 224ZM400 308Q400 432 295 432Q242 432 211 398T180 308H400ZM360 609H228V726H360V609Z"  />
<glyph unicode="&#x118;" horiz-adv-x="622" d="M590 -180Q541 -203 504 -203Q464 -203 438 -186Q408 -166 408 -128Q408 -56 514 0H83V723H572V611H237V423H554V312H237V112H582V0Q538 -22 521 -37Q489 -64 489 -97Q489 -151 547 -151Q563 -151 587 -139L590 -180Z"  />
<glyph unicode="&#x119;" horiz-adv-x="576" d="M379 -180Q330 -203 293 -203Q253 -203 227 -186Q197 -166 197 -128Q197 -62 285 -10Q166 -8 101 56Q35 122 35 244Q35 372 102 445T296 518Q463 518 519 384Q541 332 541 224H177Q177 161 203 122Q233 76 293 76Q383 76 394 164H536Q523 72 451 28Q413 5 362 -4Q325 -23 310 -37Q278 -64 278 -97Q278 -151 336 -151Q352 -151 376 -139L379 -180ZM400 308Q400 432 295 432Q242 432 211 398T180 308H400Z"  />
<glyph unicode="&#x11A;" horiz-adv-x="622" d="M582 0H83V723H572V611H237V423H554V312H237V112H582V0ZM512 921L399 776H263L152 921H249L332 832L412 921H512Z"  />
<glyph unicode="&#x11B;" horiz-adv-x="576" d="M541 224H177Q177 161 203 122Q233 76 293 76Q383 76 394 164H536Q523 72 451 28Q389 -10 291 -10Q168 -10 102 56T35 244Q35 372 102 445T296 518Q463 518 519 384Q541 332 541 224ZM400 308Q400 432 295 432Q242 432 211 398T180 308H400ZM474 735L361 590H225L114 735H211L294 646L374 735H474Z"  />
<glyph unicode="&#x11C;" horiz-adv-x="767" d="M698 27Q549 -12 420 -12Q243 -12 144 85T44 360Q44 532 142 636T411 740Q677 740 697 514H538Q522 623 402 623Q302 623 251 540Q208 471 208 364Q208 249 259 179Q317 99 428 99Q495 99 549 114V284H396V391H698V27ZM591 776H490L411 863L331 776H231L343 922H479L591 776Z"  />
<glyph unicode="&#x11D;" horiz-adv-x="631" d="M567 504Q564 391 564 364V94Q564 -55 501 -127T299 -199Q203 -199 142 -169Q62 -129 62 -42V-34H200Q201 -111 300 -111Q366 -111 393 -72Q415 -41 418 24Q418 26 418 94Q360 10 257 10Q150 10 90 84Q35 152 35 262Q35 372 91 440Q151 515 258 515Q369 515 426 427V504H567ZM420 267Q420 331 395 374Q364 427 305 427Q243 427 212 373Q187 330 187 262Q187 195 211 153Q241 101 302 101Q365 101 396 155Q420 198 420 267ZM491 590H390L311 677L231 590H131L243 736H379L491 590Z"  />
<glyph unicode="&#x11E;" horiz-adv-x="767" d="M698 27Q549 -12 420 -12Q243 -12 144 85T44 360Q44 532 142 636T411 740Q677 740 697 514H538Q522 623 402 623Q302 623 251 540Q208 471 208 364Q208 249 259 179Q317 99 428 99Q495 99 549 114V284H396V391H698V27ZM580 909Q564 774 411 774Q343 774 299 802Q249 834 244 898Q243 900 243 909H302Q313 845 412 845Q501 845 523 909H580Z"  />
<glyph unicode="&#x11F;" horiz-adv-x="631" d="M567 504Q564 391 564 364V94Q564 -55 501 -127T299 -199Q203 -199 142 -169Q62 -129 62 -42V-34H200Q201 -111 300 -111Q366 -111 393 -72Q415 -41 418 24Q418 26 418 94Q360 10 257 10Q150 10 90 84Q35 152 35 262Q35 372 91 440Q151 515 258 515Q369 515 426 427V504H567ZM420 267Q420 331 395 374Q364 427 305 427Q243 427 212 373Q187 330 187 262Q187 195 211 153Q241 101 302 101Q365 101 396 155Q420 198 420 267ZM480 723Q464 588 311 588Q243 588 199 616Q149 648 144 712Q143 714 143 723H202Q213 659 312 659Q401 659 423 723H480Z"  />
<glyph unicode="&#x120;" horiz-adv-x="767" d="M698 27Q549 -12 420 -12Q243 -12 144 85T44 360Q44 532 142 636T411 740Q677 740 697 514H538Q522 623 402 623Q302 623 251 540Q208 471 208 364Q208 249 259 179Q317 99 428 99Q495 99 549 114V284H396V391H698V27ZM477 785H345V902H477V785Z"  />
<glyph unicode="&#x121;" horiz-adv-x="631" d="M567 504Q564 391 564 364V94Q564 -55 501 -127T299 -199Q203 -199 142 -169Q62 -129 62 -42V-34H200Q201 -111 300 -111Q366 -111 393 -72Q415 -41 418 24Q418 26 418 94Q360 10 257 10Q150 10 90 84Q35 152 35 262Q35 372 91 440Q151 515 258 515Q369 515 426 427V504H567ZM420 267Q420 331 395 374Q364 427 305 427Q243 427 212 373Q187 330 187 262Q187 195 211 153Q241 101 302 101Q365 101 396 155Q420 198 420 267ZM377 609H245V726H377V609Z"  />
<glyph unicode="&#x122;" horiz-adv-x="767" d="M698 27Q549 -12 420 -12Q243 -12 144 85T44 360Q44 532 142 636T411 740Q677 740 697 514H538Q522 623 402 623Q302 623 251 540Q208 471 208 364Q208 249 259 179Q317 99 428 99Q495 99 549 114V284H396V391H698V27ZM488 -47L411 -213H314L362 -47H488Z"  />
<glyph unicode="&#x123;" horiz-adv-x="631" d="M567 504Q564 391 564 364V94Q564 -55 501 -127T299 -199Q203 -199 142 -169Q62 -129 62 -42V-34H200Q201 -111 300 -111Q366 -111 393 -72Q415 -41 418 24Q418 26 418 94Q360 10 257 10Q150 10 90 84Q35 152 35 262Q35 372 91 440Q151 515 258 515Q369 515 426 427V504H567ZM420 267Q420 331 395 374Q364 427 305 427Q243 427 212 373Q187 330 187 262Q187 195 211 153Q241 101 302 101Q365 101 396 155Q420 198 420 267ZM238 590L315 735H410L360 590H238Z"  />
<glyph unicode="&#x124;" horiz-adv-x="793" d="M710 0H553V309H240V0H83V723H240V427H553V723H710V0ZM575 776H474L395 863L315 776H215L327 922H463L575 776Z"  />
<glyph unicode="&#x125;" horiz-adv-x="631" d="M562 0H417V269Q417 337 403 368Q382 414 321 414Q261 414 234 357Q215 318 215 261V0H69V723H215V431Q278 513 377 513Q562 513 562 326V0ZM325 776H224L145 863L65 776H-35L77 922H213L325 776Z"  />
<glyph unicode="&#x126;" horiz-adv-x="793" d="M240 608H553V723H710V0H553V309H240V0H83V723H240V608ZM240 497V427H553V497H240Z"  />
<glyph unicode="&#x127;" horiz-adv-x="631" d="M438 656V560H215V431Q278 513 377 513Q562 513 562 326V0H417V269Q417 337 403 368Q382 414 321 414Q261 414 234 357Q215 318 215 261V0H69V560H0V656H69V723H215V656H438Z"  />
<glyph unicode="&#x128;" horiz-adv-x="323" d="M240 0H83V723H240V0ZM354 912Q348 862 317 827Q282 789 234 789Q208 789 158 805T82 822Q45 822 34 786H-29Q-24 838 10 873T96 909Q123 909 174 892T249 874Q280 874 287 912H354Z"  />
<glyph unicode="&#x129;" horiz-adv-x="284" d="M215 0H69V504H215V0ZM334 726Q328 676 297 641Q262 603 214 603Q188 603 138 619T62 636Q25 636 14 600H-49Q-44 652 -10 687T76 723Q103 723 154 706T229 688Q260 688 267 726H334Z"  />
<glyph unicode="&#x12A;" horiz-adv-x="323" d="M240 0H83V723H240V0ZM323 805H-11V874H323V805Z"  />
<glyph unicode="&#x12B;" horiz-adv-x="284" d="M215 0H69V504H215V0ZM311 629H-23V698H311V629Z"  />
<glyph unicode="&#x12E;" horiz-adv-x="323" d="M247 -180Q198 -203 161 -203Q121 -203 95 -186Q65 -166 65 -128Q65 -56 171 0H83V723H240V0H239Q195 -22 178 -37Q146 -64 146 -97Q146 -151 204 -151Q220 -151 244 -139L247 -180Z"  />
<glyph unicode="&#x12F;" horiz-adv-x="284" d="M222 -180Q173 -203 136 -203Q96 -203 70 -186Q40 -166 40 -128Q40 -56 146 0H69V505H215V0H214Q170 -22 153 -37Q121 -64 121 -97Q121 -151 179 -151Q195 -151 219 -139L222 -180ZM218 607H66V723H218V607Z"  />
<glyph unicode="&#x130;" horiz-adv-x="323" d="M240 0H83V723H240V0ZM228 785H96V902H228V785Z"  />
<glyph unicode="&#x131;" horiz-adv-x="284" d="M215 0H69V504H215V0Z"  />
<glyph unicode="&#x132;" horiz-adv-x="901" d="M240 0H83V723H240V0ZM827 232Q827 -12 572 -12Q472 -12 405 33Q329 87 329 183Q329 202 330 211H491V186Q491 148 514 125T575 101Q670 101 670 231V723H827V232Z"  />
<glyph unicode="&#x133;" horiz-adv-x="568" d="M218 607H66V723H218V607ZM215 0H69V505H215V0ZM502 607H350V723H502V607ZM499 -45Q499 -132 457 -164Q421 -191 330 -191Q303 -191 267 -189V-89Q271 -89 278 -90T289 -91Q353 -91 353 -11V505H499V-45Z"  />
<glyph unicode="&#x134;" horiz-adv-x="578" d="M504 232Q504 -12 249 -12Q149 -12 82 33Q6 87 6 183Q6 202 7 211H168V186Q168 148 191 125T252 101Q347 101 347 231V723H504V232ZM606 776H505L426 863L346 776H246L358 922H494L606 776Z"  />
<glyph unicode="&#x135;" horiz-adv-x="284" d="M215 -45Q215 -132 173 -164Q137 -191 46 -191Q19 -191 -17 -189V-89Q-13 -89 -6 -90T5 -91Q69 -91 69 -11V505H215V-45ZM324 590H223L144 677L64 590H-36L76 736H212L324 590Z"  />
<glyph unicode="&#x136;" horiz-adv-x="721" d="M725 0H529L242 397L502 723H692L408 403L725 0ZM240 0H83V723H240V0ZM436 -47L359 -213H262L310 -47H436Z"  />
<glyph unicode="&#x137;" horiz-adv-x="616" d="M609 0H423L216 283L411 505H587L381 290L609 0ZM215 0H69V723H215V0ZM396 -47L319 -213H222L270 -47H396Z"  />
<glyph unicode="&#x139;" horiz-adv-x="594" d="M578 0H83V723H240V114H578V0ZM349 921L185 776H84L188 921H349Z"  />
<glyph unicode="&#x13A;" horiz-adv-x="284" d="M215 0H69V723H215V0ZM322 911L158 766H57L161 911H322Z"  />
<glyph unicode="&#x13B;" horiz-adv-x="594" d="M578 0H83V723H240V114H578V0ZM405 -47L328 -213H231L279 -47H405Z"  />
<glyph unicode="&#x13C;" horiz-adv-x="284" d="M215 0H69V723H215V0ZM210 -47L133 -213H36L84 -47H210Z"  />
<glyph unicode="&#x13D;" horiz-adv-x="594" d="M578 0H83V723H240V114H578V0ZM496 725L433 527H334L366 725H496Z"  />
<glyph unicode="&#x13E;" horiz-adv-x="284" d="M215 0H69V723H215V0ZM433 725L370 527H271L303 725H433Z"  />
<glyph unicode="&#x13F;" horiz-adv-x="594" d="M578 0H83V723H240V114H578V0ZM475 362H343V479H475V362Z"  />
<glyph unicode="&#x140;" horiz-adv-x="416" d="M215 0H69V723H215V0ZM416 312H284V429H416V312Z"  />
<glyph unicode="&#x141;" horiz-adv-x="595" d="M579 0H84V294L7 248V333L84 378V723H241V463L429 574V489L241 379V114H579V0Z"  />
<glyph unicode="&#x142;" horiz-adv-x="284" d="M305 446L216 389V0H70V297L-19 240V329L70 386V723H216V478L305 535V446Z"  />
<glyph unicode="&#x143;" horiz-adv-x="799" d="M716 0H496L218 596V0H83V723H303L581 126V723H716V0ZM570 921L406 776H305L409 921H570Z"  />
<glyph unicode="&#x144;" horiz-adv-x="631" d="M562 0H416V267Q416 336 402 367Q381 414 321 414Q261 414 234 355Q215 314 215 254V0H69V405Q69 457 65 504H210L212 427Q278 512 378 512Q562 512 562 326V0ZM495 735L331 590H230L334 735H495Z"  />
<glyph unicode="&#x145;" horiz-adv-x="799" d="M716 0H496L218 596V0H83V723H303L581 126V723H716V0ZM460 -47L383 -213H286L334 -47H460Z"  />
<glyph unicode="&#x146;" horiz-adv-x="631" d="M562 0H416V267Q416 336 402 367Q381 414 321 414Q261 414 234 355Q215 314 215 254V0H69V405Q69 457 65 504H210L212 427Q278 512 378 512Q562 512 562 326V0ZM387 -47L310 -213H213L261 -47H387Z"  />
<glyph unicode="&#x147;" horiz-adv-x="799" d="M716 0H496L218 596V0H83V723H303L581 126V723H716V0ZM573 921L460 776H324L213 921H310L393 832L473 921H573Z"  />
<glyph unicode="&#x148;" horiz-adv-x="631" d="M562 0H416V267Q416 336 402 367Q381 414 321 414Q261 414 234 355Q215 314 215 254V0H69V405Q69 457 65 504H210L212 427Q278 512 378 512Q562 512 562 326V0ZM498 735L385 590H249L138 735H235L318 646L398 735H498Z"  />
<glyph unicode="&#x149;" horiz-adv-x="689" d="M620 0H474V267Q474 336 460 367Q439 414 379 414Q319 414 292 355Q273 314 273 254V0H127V405Q127 457 123 504H268L270 427Q336 512 436 512Q620 512 620 326V0ZM124 725L61 527H-38L-6 725H124Z"  />
<glyph unicode="&#x14C;" horiz-adv-x="779" d="M735 362Q735 194 648 92Q555 -14 388 -14Q220 -14 129 90Q44 189 44 360Q44 531 131 632Q223 741 391 741Q560 741 650 634Q735 534 735 362ZM577 365Q577 473 537 542Q488 626 388 626Q290 626 241 541Q202 472 202 365Q202 254 239 186Q286 101 388 101Q490 101 538 186Q577 254 577 365ZM551 805H217V874H551V805Z"  />
<glyph unicode="&#x14D;" horiz-adv-x="618" d="M583 254Q583 129 509 59T308 -11Q181 -11 108 58T35 254Q35 378 111 448T312 518Q438 518 510 449T583 254ZM431 253Q431 326 406 372Q374 430 308 430Q187 430 187 253Q187 75 308 75Q374 75 406 134Q431 181 431 253ZM476 629H142V698H476V629Z"  />
<glyph unicode="&#x14E;" horiz-adv-x="779" d="M735 362Q735 194 648 92Q555 -14 388 -14Q220 -14 129 90Q44 189 44 360Q44 531 131 632Q223 741 391 741Q560 741 650 634Q735 534 735 362ZM577 365Q577 473 537 542Q488 626 388 626Q290 626 241 541Q202 472 202 365Q202 254 239 186Q286 101 388 101Q490 101 538 186Q577 254 577 365ZM559 909Q543 774 390 774Q322 774 278 802Q228 834 223 898Q222 900 222 909H281Q292 845 391 845Q480 845 502 909H559Z"  />
<glyph unicode="&#x14F;" horiz-adv-x="618" d="M583 254Q583 129 509 59T308 -11Q181 -11 108 58T35 254Q35 378 111 448T312 518Q438 518 510 449T583 254ZM431 253Q431 326 406 372Q374 430 308 430Q187 430 187 253Q187 75 308 75Q374 75 406 134Q431 181 431 253ZM478 723Q462 588 309 588Q241 588 197 616Q147 648 142 712Q141 714 141 723H200Q211 659 310 659Q399 659 421 723H478Z"  />
<glyph unicode="&#x150;" horiz-adv-x="779" d="M735 362Q735 194 648 92Q555 -14 388 -14Q220 -14 129 90Q44 189 44 360Q44 531 131 632Q223 741 391 741Q560 741 650 634Q735 534 735 362ZM577 365Q577 473 537 542Q488 626 388 626Q290 626 241 541Q202 472 202 365Q202 254 239 186Q286 101 388 101Q490 101 538 186Q577 254 577 365ZM693 921L529 777H426L532 921H693ZM457 921L293 777H192L296 921H457Z"  />
<glyph unicode="&#x151;" horiz-adv-x="618" d="M583 254Q583 129 509 59T308 -11Q181 -11 108 58T35 254Q35 378 111 448T312 518Q438 518 510 449T583 254ZM431 253Q431 326 406 372Q374 430 308 430Q187 430 187 253Q187 75 308 75Q374 75 406 134Q431 181 431 253ZM612 735L448 591H345L451 735H612ZM376 735L212 591H111L215 735H376Z"  />
<glyph unicode="&#x152;" horiz-adv-x="988" d="M948 0H570Q547 0 500 -2T430 -4Q248 -4 149 86Q45 181 45 363Q45 543 147 638Q245 729 424 729Q452 729 507 726T591 723H938V610H644V423H919V311H644V113H948V0ZM494 109V616Q460 622 422 622Q308 622 251 546Q199 478 199 360Q199 245 252 177Q310 103 422 103Q463 103 494 109Z"  />
<glyph unicode="&#x153;" horiz-adv-x="974" d="M940 223H577V219Q577 157 603 119Q633 75 692 75Q736 75 763 98T793 163H935Q930 87 865 39T693 -10Q567 -10 504 66Q437 -11 309 -11Q182 -11 109 58T36 254Q36 378 112 448T313 518Q445 518 508 437Q580 518 695 518Q862 518 918 384Q940 331 940 223ZM799 307Q799 361 774 394Q746 431 694 431Q640 431 610 396T579 307H799ZM432 253Q432 326 407 372Q375 430 309 430Q188 430 188 253Q188 75 309 75Q375 75 407 134Q432 181 432 253Z"  />
<glyph unicode="&#x154;" horiz-adv-x="709" d="M668 0H504Q491 37 485 92Q480 139 476 186Q469 256 448 279Q424 305 356 305H239V0H83V723H360Q476 723 533 699Q649 651 649 540Q649 397 486 365V364Q548 360 579 336T622 254Q625 242 633 182Q638 136 644 89Q652 35 668 0ZM496 514Q496 613 339 613H239V411H328Q404 411 440 426Q496 450 496 514ZM538 921L374 776H273L377 921H538Z"  />
<glyph unicode="&#x155;" horiz-adv-x="398" d="M390 379Q366 382 346 382Q215 382 215 238V0H69V381Q69 401 67 441T65 504H206L210 411Q257 507 366 507Q382 507 390 506V379ZM382 735L218 590H117L221 735H382Z"  />
<glyph unicode="&#x156;" horiz-adv-x="709" d="M668 0H504Q491 37 485 92Q480 139 476 186Q469 256 448 279Q424 305 356 305H239V0H83V723H360Q476 723 533 699Q649 651 649 540Q649 397 486 365V364Q548 360 579 336T622 254Q625 242 633 182Q638 136 644 89Q652 35 668 0ZM496 514Q496 613 339 613H239V411H328Q404 411 440 426Q496 450 496 514ZM430 -47L353 -213H256L304 -47H430Z"  />
<glyph unicode="&#x157;" horiz-adv-x="398" d="M390 379Q366 382 346 382Q215 382 215 238V0H69V381Q69 401 67 441T65 504H206L210 411Q257 507 366 507Q382 507 390 506V379ZM210 -47L133 -213H36L84 -47H210Z"  />
<glyph unicode="&#x158;" horiz-adv-x="709" d="M668 0H504Q491 37 485 92Q480 139 476 186Q469 256 448 279Q424 305 356 305H239V0H83V723H360Q476 723 533 699Q649 651 649 540Q649 397 486 365V364Q548 360 579 336T622 254Q625 242 633 182Q638 136 644 89Q652 35 668 0ZM496 514Q496 613 339 613H239V411H328Q404 411 440 426Q496 450 496 514ZM541 921L428 776H292L181 921H278L361 832L441 921H541Z"  />
<glyph unicode="&#x159;" horiz-adv-x="398" d="M390 379Q366 382 346 382Q215 382 215 238V0H69V381Q69 401 67 441T65 504H206L210 411Q257 507 366 507Q382 507 390 506V379ZM385 735L272 590H136L25 735H122L205 646L285 735H385Z"  />
<glyph unicode="&#x15A;" horiz-adv-x="678" d="M633 215Q633 100 536 39Q454 -12 332 -12Q205 -12 131 40Q47 100 45 222H202Q206 99 335 99Q389 99 427 124Q471 153 471 203Q471 252 409 278Q367 291 284 316Q177 349 133 381Q62 433 62 522Q62 633 154 690Q231 737 349 737Q611 737 612 528H455Q445 632 337 632Q290 632 257 608Q221 582 221 537Q221 506 244 488T354 441Q414 422 475 402Q555 371 589 337Q633 292 633 215ZM519 921L355 776H254L358 921H519Z"  />
<glyph unicode="&#x15B;" horiz-adv-x="537" d="M500 153Q500 64 422 21Q360 -12 263 -12Q37 -12 37 161H184Q187 71 270 71Q303 71 328 89T353 138Q353 185 257 209Q146 237 121 250Q51 287 51 364Q51 445 123 485Q180 517 267 517Q476 517 485 354H342Q339 435 265 435Q235 435 214 422Q189 407 189 379Q189 334 286 311Q398 284 427 269Q500 232 500 153ZM445 735L281 590H180L284 735H445Z"  />
<glyph unicode="&#x15C;" horiz-adv-x="678" d="M633 215Q633 100 536 39Q454 -12 332 -12Q205 -12 131 40Q47 100 45 222H202Q206 99 335 99Q389 99 427 124Q471 153 471 203Q471 252 409 278Q367 291 284 316Q177 349 133 381Q62 433 62 522Q62 633 154 690Q231 737 349 737Q611 737 612 528H455Q445 632 337 632Q290 632 257 608Q221 582 221 537Q221 506 244 488T354 441Q414 422 475 402Q555 371 589 337Q633 292 633 215ZM522 776H421L342 863L262 776H162L274 922H410L522 776Z"  />
<glyph unicode="&#x15D;" horiz-adv-x="537" d="M500 153Q500 64 422 21Q360 -12 263 -12Q37 -12 37 161H184Q187 71 270 71Q303 71 328 89T353 138Q353 185 257 209Q146 237 121 250Q51 287 51 364Q51 445 123 485Q180 517 267 517Q476 517 485 354H342Q339 435 265 435Q235 435 214 422Q189 407 189 379Q189 334 286 311Q398 284 427 269Q500 232 500 153ZM448 590H347L268 677L188 590H88L200 736H336L448 590Z"  />
<glyph unicode="&#x15E;" horiz-adv-x="678" d="M448 -126Q448 -206 323 -206Q267 -206 214 -185L225 -145Q275 -169 317 -169Q370 -169 370 -130Q370 -92 319 -92Q307 -92 289 -98L269 -85L306 -11Q197 -6 131 40Q47 100 45 222H202Q206 99 335 99Q389 99 427 124Q471 153 471 203Q471 252 409 278Q367 291 284 316Q177 349 133 381Q62 433 62 522Q62 633 154 690Q231 737 349 737Q611 737 612 528H455Q445 632 337 632Q290 632 257 608Q221 582 221 537Q221 506 244 488T354 441Q414 422 475 402Q555 371 589 337Q633 292 633 215Q633 100 536 39Q459 -8 348 -12L327 -58Q353 -54 365 -54Q400 -54 424 -72T448 -126Z"  />
<glyph unicode="&#x15F;" horiz-adv-x="537" d="M378 -126Q378 -206 253 -206Q197 -206 144 -185L155 -145Q205 -169 247 -169Q300 -169 300 -130Q300 -92 249 -92Q237 -92 219 -98L199 -85L236 -11Q37 -1 37 161H184Q187 71 270 71Q303 71 328 89T353 138Q353 185 257 209Q146 237 121 250Q51 287 51 364Q51 445 123 485Q180 517 267 517Q476 517 485 354H342Q339 435 265 435Q235 435 214 422Q189 407 189 379Q189 334 286 311Q398 284 427 269Q500 232 500 153Q500 64 422 21Q365 -9 278 -12L257 -58Q283 -54 295 -54Q330 -54 354 -72T378 -126Z"  />
<glyph unicode="&#x160;" horiz-adv-x="678" d="M633 215Q633 100 536 39Q454 -12 332 -12Q205 -12 131 40Q47 100 45 222H202Q206 99 335 99Q389 99 427 124Q471 153 471 203Q471 252 409 278Q367 291 284 316Q177 349 133 381Q62 433 62 522Q62 633 154 690Q231 737 349 737Q611 737 612 528H455Q445 632 337 632Q290 632 257 608Q221 582 221 537Q221 506 244 488T354 441Q414 422 475 402Q555 371 589 337Q633 292 633 215ZM522 921L409 776H273L162 921H259L342 832L422 921H522Z"  />
<glyph unicode="&#x161;" horiz-adv-x="537" d="M500 153Q500 64 422 21Q360 -12 263 -12Q37 -12 37 161H184Q187 71 270 71Q303 71 328 89T353 138Q353 185 257 209Q146 237 121 250Q51 287 51 364Q51 445 123 485Q180 517 267 517Q476 517 485 354H342Q339 435 265 435Q235 435 214 422Q189 407 189 379Q189 334 286 311Q398 284 427 269Q500 232 500 153ZM448 735L335 590H199L88 735H185L268 646L348 735H448Z"  />
<glyph unicode="&#x162;" horiz-adv-x="621" d="M615 608H389V0H232V608H6V723H615V608ZM380 -47L303 -213H206L254 -47H380Z"  />
<glyph unicode="&#x163;" horiz-adv-x="385" d="M367 409H248V179Q248 129 258 113Q272 92 319 92Q307 92 366 96V1Q313 -6 262 -6Q181 -6 146 19Q106 50 106 128V409H9V505H106V589L248 647V505H367V409ZM264 -47L187 -213H90L138 -47H264Z"  />
<glyph unicode="&#x164;" horiz-adv-x="621" d="M615 608H389V0H232V608H6V723H615V608ZM493 921L380 776H244L133 921H230L313 832L393 921H493Z"  />
<glyph unicode="&#x165;" horiz-adv-x="385" d="M367 409H248V179Q248 129 258 113Q272 92 319 92Q307 92 366 96V1Q313 -6 262 -6Q181 -6 146 19Q106 50 106 128V409H9V505H106V589L248 647V505H367V409ZM481 725L418 527H319L351 725H481Z"  />
<glyph unicode="&#x166;" horiz-adv-x="621" d="M568 307H389V0H232V307H53V418H232V608H6V723H615V608H389V418H568V307Z"  />
<glyph unicode="&#x167;" horiz-adv-x="385" d="M367 335V239H248V179Q248 129 258 113Q271 92 317 92Q314 92 366 96V1Q313 -6 262 -6Q181 -6 146 19Q106 50 106 128V239H9V335H106V409H9V505H106V589L248 647V505H367V409H248V335H367Z"  />
<glyph unicode="&#x168;" horiz-adv-x="795" d="M715 301Q715 -15 395 -15Q191 -15 119 110Q80 178 80 305V723H241V297Q241 203 272 156Q309 99 399 99Q559 99 559 301V723H715V301ZM592 912Q586 862 555 827Q520 789 472 789Q446 789 396 805T320 822Q283 822 272 786H209Q214 838 248 873T334 909Q361 909 412 892T487 874Q518 874 525 912H592Z"  />
<glyph unicode="&#x169;" horiz-adv-x="630" d="M566 0H420L418 77Q352 -7 253 -7Q69 -7 69 178V504H215V236Q215 166 228 136Q249 89 309 89Q417 89 417 243V504H563V186Q563 65 566 0ZM508 726Q502 676 471 641Q436 603 388 603Q362 603 312 619T236 636Q199 636 188 600H125Q130 652 164 687T250 723Q277 723 328 706T403 688Q434 688 441 726H508Z"  />
<glyph unicode="&#x16A;" horiz-adv-x="795" d="M715 301Q715 -15 395 -15Q191 -15 119 110Q80 178 80 305V723H241V297Q241 203 272 156Q309 99 399 99Q559 99 559 301V723H715V301ZM561 805H227V874H561V805Z"  />
<glyph unicode="&#x16B;" horiz-adv-x="630" d="M566 0H420L418 77Q352 -7 253 -7Q69 -7 69 178V504H215V236Q215 166 228 136Q249 89 309 89Q417 89 417 243V504H563V186Q563 65 566 0ZM485 629H151V698H485V629Z"  />
<glyph unicode="&#x16C;" horiz-adv-x="795" d="M715 301Q715 -15 395 -15Q191 -15 119 110Q80 178 80 305V723H241V297Q241 203 272 156Q309 99 399 99Q559 99 559 301V723H715V301ZM569 909Q553 774 400 774Q332 774 288 802Q238 834 233 898Q232 900 232 909H291Q302 845 401 845Q490 845 512 909H569Z"  />
<glyph unicode="&#x16D;" horiz-adv-x="630" d="M566 0H420L418 77Q352 -7 253 -7Q69 -7 69 178V504H215V236Q215 166 228 136Q249 89 309 89Q417 89 417 243V504H563V186Q563 65 566 0ZM487 723Q471 588 318 588Q250 588 206 616Q156 648 151 712Q150 714 150 723H209Q220 659 319 659Q408 659 430 723H487Z"  />
<glyph unicode="&#x16E;" horiz-adv-x="795" d="M715 301Q715 -15 395 -15Q191 -15 119 110Q80 178 80 305V723H241V297Q241 203 272 156Q309 99 399 99Q559 99 559 301V723H715V301ZM503 852Q503 808 473 778T399 748Q356 748 326 778T295 852Q295 895 325 925T399 956Q442 956 472 926T503 852ZM454 852Q454 875 438 891T400 907Q377 907 361 891T344 852Q344 829 360 813T400 797Q423 797 438 813T454 852Z"  />
<glyph unicode="&#x16F;" horiz-adv-x="630" d="M566 0H420L418 77Q352 -7 253 -7Q69 -7 69 178V504H215V236Q215 166 228 136Q249 89 309 89Q417 89 417 243V504H563V186Q563 65 566 0ZM421 676Q421 632 391 602T317 572Q274 572 244 602T213 676Q213 719 243 749T317 780Q360 780 390 750T421 676ZM372 676Q372 699 356 715T318 731Q295 731 279 715T262 676Q262 653 278 637T318 621Q341 621 356 637T372 676Z"  />
<glyph unicode="&#x170;" horiz-adv-x="795" d="M715 301Q715 -15 395 -15Q191 -15 119 110Q80 178 80 305V723H241V297Q241 203 272 156Q309 99 399 99Q559 99 559 301V723H715V301ZM703 921L539 777H436L542 921H703ZM467 921L303 777H202L306 921H467Z"  />
<glyph unicode="&#x171;" horiz-adv-x="630" d="M566 0H420L418 77Q352 -7 253 -7Q69 -7 69 178V504H215V236Q215 166 228 136Q249 89 309 89Q417 89 417 243V504H563V186Q563 65 566 0ZM621 735L457 591H354L460 735H621ZM385 735L221 591H120L224 735H385Z"  />
<glyph unicode="&#x172;" horiz-adv-x="795" d="M489 -180Q440 -203 403 -203Q363 -203 337 -186Q307 -166 307 -128Q307 -65 386 -15Q189 -12 119 110Q80 178 80 305V723H241V297Q241 203 272 156Q309 99 399 99Q559 99 559 301V723H715V301Q715 18 458 -11Q432 -26 420 -37Q388 -64 388 -97Q388 -151 446 -151Q462 -151 486 -139L489 -180Z"  />
<glyph unicode="&#x173;" horiz-adv-x="630" d="M574 -180Q525 -203 488 -203Q448 -203 422 -186Q392 -166 392 -128Q392 -56 498 0H420L418 77Q352 -7 253 -7Q69 -7 69 178V504H215V236Q215 166 228 136Q249 89 309 89Q417 89 417 243V504H563V186Q563 65 566 0Q522 -22 505 -37Q473 -64 473 -97Q473 -151 531 -151Q547 -151 571 -139L574 -180Z"  />
<glyph unicode="&#x174;" horiz-adv-x="1110" d="M1106 723L909 0H720L559 591L395 0H206L4 723H169L309 133L469 723H659L815 133L952 723H1106ZM741 776H640L561 863L481 776H381L493 922H629L741 776Z"  />
<glyph unicode="&#x175;" horiz-adv-x="925" d="M918 504L745 0H588L468 382L341 0H185L7 504H165L269 121L393 504H558L674 121L781 504H918ZM649 590H548L469 677L389 590H289L401 736H537L649 590Z"  />
<glyph unicode="&#x176;" horiz-adv-x="688" d="M703 724L423 281V0H266V281L-14 724H168L350 389L534 724H703ZM529 776H428L349 863L269 776H169L281 922H417L529 776Z"  />
<glyph unicode="&#x177;" horiz-adv-x="573" d="M573 504L287 -189H148L228 -2L0 504H164L299 127L429 504H573ZM476 590H375L296 677L216 590H116L228 736H364L476 590Z"  />
<glyph unicode="&#x178;" horiz-adv-x="688" d="M703 724L423 281V0H266V281L-14 724H168L350 389L534 724H703ZM533 785H400V902H533V785ZM296 785H165V902H296V785Z"  />
<glyph unicode="&#x179;" horiz-adv-x="630" d="M610 0H20V128L403 610H44V723H596V605L196 113H610V0ZM493 921L329 776H228L332 921H493Z"  />
<glyph unicode="&#x17A;" horiz-adv-x="490" d="M463 0H29V99L293 405H39V504H453V401L196 97H463V0ZM425 735L261 590H160L264 735H425Z"  />
<glyph unicode="&#x17B;" horiz-adv-x="630" d="M610 0H20V128L403 610H44V723H596V605L196 113H610V0ZM382 785H250V902H382V785Z"  />
<glyph unicode="&#x17C;" horiz-adv-x="490" d="M463 0H29V99L293 405H39V504H453V401L196 97H463V0ZM314 609H182V726H314V609Z"  />
<glyph unicode="&#x17D;" horiz-adv-x="630" d="M610 0H20V128L403 610H44V723H596V605L196 113H610V0ZM496 921L383 776H247L136 921H233L316 832L396 921H496Z"  />
<glyph unicode="&#x17E;" horiz-adv-x="490" d="M463 0H29V99L293 405H39V504H453V401L196 97H463V0ZM428 735L315 590H179L68 735H165L248 646L328 735H428Z"  />
<glyph unicode="&#x192;" horiz-adv-x="628" d="M542 741L524 635Q508 639 489 639Q450 639 432 603Q423 585 412 529Q407 505 397 458H498L480 362H380L343 158Q330 82 317 6Q297 -77 258 -118Q209 -170 118 -170Q83 -170 40 -162L58 -59Q75 -62 87 -62Q124 -62 142 -38Q154 -21 162 19L227 362H133L151 457H245Q272 611 292 653Q339 749 452 749Q489 749 542 741Z"  />
<glyph unicode="&#x218;" horiz-adv-x="678" d="M633 215Q633 100 536 39Q454 -12 332 -12Q205 -12 131 40Q47 100 45 222H202Q206 99 335 99Q389 99 427 124Q471 153 471 203Q471 252 409 278Q367 291 284 316Q177 349 133 381Q62 433 62 522Q62 633 154 690Q231 737 349 737Q611 737 612 528H455Q445 632 337 632Q290 632 257 608Q221 582 221 537Q221 506 244 488T354 441Q414 422 475 402Q555 371 589 337Q633 292 633 215ZM404 -47L327 -213H230L278 -47H404Z"  />
<glyph unicode="&#x219;" horiz-adv-x="537" d="M500 153Q500 64 422 21Q360 -12 263 -12Q37 -12 37 161H184Q187 71 270 71Q303 71 328 89T353 138Q353 185 257 209Q146 237 121 250Q51 287 51 364Q51 445 123 485Q180 517 267 517Q476 517 485 354H342Q339 435 265 435Q235 435 214 422Q189 407 189 379Q189 334 286 311Q398 284 427 269Q500 232 500 153ZM334 -47L257 -213H160L208 -47H334Z"  />
<glyph unicode="&#x21A;" horiz-adv-x="621" d="M615 608H389V0H232V608H6V723H615V608ZM380 -47L303 -213H206L254 -47H380Z"  />
<glyph unicode="&#x21B;" horiz-adv-x="385" d="M367 409H248V179Q248 129 258 113Q272 92 319 92Q307 92 366 96V1Q313 -6 262 -6Q181 -6 146 19Q106 50 106 128V409H9V505H106V589L248 647V505H367V409ZM264 -47L187 -213H90L138 -47H264Z"  />
<glyph unicode="&#x237;" horiz-adv-x="284" d="M215 -45Q215 -132 173 -164Q137 -191 46 -191Q19 -191 -17 -189V-89Q-13 -89 -6 -90T5 -91Q69 -91 69 -11V505H215V-45Z"  />
<glyph unicode="&#x2C6;" horiz-adv-x="319" d="M340 590H239L160 677L80 590H-20L92 736H228L340 590Z"  />
<glyph unicode="&#x2C7;" horiz-adv-x="319" d="M340 735L227 590H91L-20 735H77L160 646L240 735H340Z"  />
<glyph unicode="&#x2C9;" horiz-adv-x="308" d="M321 805H-13V874H321V805Z"  />
<glyph unicode="&#x2D8;" horiz-adv-x="320" d="M329 723Q313 588 160 588Q92 588 48 616Q-2 648 -7 712Q-8 714 -8 723H51Q62 659 161 659Q250 659 272 723H329Z"  />
<glyph unicode="&#x2D9;" horiz-adv-x="320" d="M226 609H94V726H226V609Z"  />
<glyph unicode="&#x2DA;" horiz-adv-x="318" d="M263 676Q263 632 233 602T159 572Q116 572 86 602T55 676Q55 719 85 749T159 780Q202 780 232 750T263 676ZM214 676Q214 699 198 715T160 731Q137 731 121 715T104 676Q104 653 120 637T160 621Q183 621 198 637T214 676Z"  />
<glyph unicode="&#x2DB;" horiz-adv-x="319" d="M247 -180Q198 -203 161 -203Q121 -203 95 -186Q65 -166 65 -128Q65 -56 171 0H239Q195 -22 178 -37Q146 -64 146 -97Q146 -151 204 -151Q220 -151 244 -139L247 -180Z"  />
<glyph unicode="&#x2DC;" horiz-adv-x="320" d="M352 726Q346 676 315 641Q280 603 232 603Q206 603 156 619T80 636Q43 636 32 600H-31Q-26 652 8 687T94 723Q121 723 172 706T247 688Q278 688 285 726H352Z"  />
<glyph unicode="&#x2DD;" horiz-adv-x="319" d="M463 735L299 591H196L302 735H463ZM227 735L63 591H-38L66 735H227Z"  />
<glyph unicode="&#x394;" horiz-adv-x="701" d="M685 0H14L279 694H405L685 0ZM523 108L343 569L170 108H523Z"  />
<glyph unicode="&#x3A9;" horiz-adv-x="765" d="M711 417Q711 323 665 252Q615 175 527 153V103H710V0H433V203Q508 217 549 274Q587 328 587 407Q587 497 530 556T384 616Q295 616 237 555T178 404Q178 326 216 273Q257 216 331 203V0H54V103H238V153Q152 175 101 251Q54 322 54 414Q54 551 151 638Q245 722 384 722Q521 722 614 639Q711 552 711 417Z"  />
<glyph unicode="&#x3BC;" horiz-adv-x="620" d="M530 0H433V64Q384 -8 308 -8Q239 -8 198 48V-210H90V504H202V253Q202 178 218 141Q242 84 306 84Q373 84 399 138Q418 176 418 251V504H530V0Z"  />
<glyph unicode="&#x3C0;" horiz-adv-x="602" d="M576 15Q530 -7 489 -7Q427 -7 403 30Q384 60 384 125V402H184V0H73V402H3V504H574V402H495V149Q495 117 499 107Q506 87 533 87Q551 87 576 98V15Z"  />
<glyph unicode="&#x2013;" horiz-adv-x="504" d="M502 217H2V315H502V217Z"  />
<glyph unicode="&#x2014;" horiz-adv-x="1005" d="M873 217H132V315H873V217Z"  />
<glyph unicode="&#x2018;" horiz-adv-x="315" d="M255 723L201 477H60L153 723H255Z"  />
<glyph unicode="&#x2019;" horiz-adv-x="316" d="M256 723L163 477H60L116 723H256Z"  />
<glyph unicode="&#x201A;" horiz-adv-x="318" d="M258 128L162 -117H60L117 128H258Z"  />
<glyph unicode="&#x201C;" horiz-adv-x="550" d="M490 723L431 477H290L388 723H490ZM260 723L201 477H60L158 723H260Z"  />
<glyph unicode="&#x201D;" horiz-adv-x="550" d="M490 723L392 477H290L349 723H490ZM260 723L162 477H60L118 723H260Z"  />
<glyph unicode="&#x201E;" horiz-adv-x="548" d="M488 128L392 -117H290L347 128H488ZM258 128L162 -117H60L117 128H258Z"  />
<glyph unicode="&#x2020;" horiz-adv-x="632" d="M548 459H377V0H256V459H84V557H256V723H377V557H548V459Z"  />
<glyph unicode="&#x2021;" horiz-adv-x="632" d="M548 161H377V0H255V161H84V258H255V467H84V565H255V723H377V565H548V467H377V258H548V161Z"  />
<glyph unicode="&#x2022;" horiz-adv-x="506" d="M434 362Q434 287 381 234T253 181Q178 181 125 234T72 362Q72 437 125 490T253 543Q328 543 381 490T434 362Z"  />
<glyph unicode="&#x2026;" horiz-adv-x="1005" d="M907 0H765V128H907V0ZM574 0H431V128H574V0ZM241 0H98V128H241V0Z"  />
<glyph unicode="&#x2030;" horiz-adv-x="1006" d="M983 162Q983 88 949 42Q910 -9 839 -9Q768 -9 730 38Q695 82 695 155Q695 231 730 277Q768 328 842 328Q913 328 950 279Q983 235 983 162ZM311 575Q311 501 277 455Q238 403 167 403Q96 403 58 451Q23 494 23 567Q23 644 58 690Q96 741 170 741Q241 741 278 692Q311 648 311 575ZM584 755L175 -26H84L494 755H584ZM644 162Q644 88 610 42Q571 -9 500 -9Q429 -9 391 38Q356 82 356 155Q356 231 391 277Q429 328 503 328Q574 328 611 279Q644 235 644 162ZM893 165Q893 259 840 259Q784 259 784 158Q784 58 839 58Q893 58 893 165ZM221 578Q221 672 168 672Q113 672 113 570Q113 471 167 471Q221 471 221 578ZM554 165Q554 259 501 259Q446 259 446 158Q446 58 500 58Q554 58 554 165Z"  />
<glyph unicode="&#x2039;" horiz-adv-x="319" d="M277 61H159L42 257L158 451H277L168 255L277 61Z"  />
<glyph unicode="&#x203A;" horiz-adv-x="319" d="M277 255L161 61H42L151 257L42 451H160L277 255Z"  />
<glyph unicode="&#x2044;" horiz-adv-x="173" d="M337 755L-72 -26H-163L246 755H337Z"  />
<glyph unicode="&#x20AC;" horiz-adv-x="628" d="M571 582Q554 601 520 616T432 631Q357 631 321 596T277 498H543L517 404H274Q274 393 274 389T273 376Q273 365 273 357T274 335H494L468 241H277Q282 166 318 131T430 96Q477 96 511 109T571 146V18Q548 4 512 -5T424 -14Q349 -14 297 2T210 50T156 129T130 241H32L58 335H124Q124 348 124 356T123 376Q123 385 123 389Q123 393 124 404H35L61 498H130Q142 556 165 601T224 677T311 724T429 741Q463 741 491 736T541 724T578 709T603 695L571 582Z"  />
<glyph unicode="&#x2113;" horiz-adv-x="500" d="M437 47Q367 -14 285 -14Q216 -14 177 23T138 124V199L81 145H79L41 202L137 287V535Q137 577 149 611T182 669T231 707T294 721Q354 721 389 683T425 581Q425 506 380 430T243 269V141Q243 118 249 104T264 80T286 68T310 64Q351 64 398 103H400L437 47H437ZM339 574Q339 606 326 628T293 650Q273 650 258 626T243 554V361Q291 415 315 469T339 574Z"  />
<glyph unicode="&#x2122;" horiz-adv-x="952" d="M831 362H755L757 670L658 362H590L493 670V362H421V723H547L627 461L707 723H831V362ZM385 664H268V362H186V664H68V723H385V664Z"  />
<glyph unicode="&#x2126;" horiz-adv-x="765" d="M711 417Q711 323 665 252Q615 175 527 153V103H710V0H433V203Q508 217 549 274Q587 328 587 407Q587 497 530 556T384 616Q295 616 237 555T178 404Q178 326 216 273Q257 216 331 203V0H54V103H238V153Q152 175 101 251Q54 322 54 414Q54 551 151 638Q245 722 384 722Q521 722 614 639Q711 552 711 417Z"  />
<glyph unicode="&#x212E;" horiz-adv-x="600" d="M157 259V78Q216 19 302 19Q365 19 411 47T495 139L530 118Q507 82 484 57T433 15T373 -9T302 -17Q243 -17 196 4T114 63T62 151T44 259Q44 317 62 367T114 455T195 513T302 535Q360 535 407 515T489 458T542 371T561 259H157ZM448 295V440Q385 500 301 500Q217 500 157 440V295H448Z"  />
<glyph unicode="&#x2202;" horiz-adv-x="554" d="M505 356Q505 210 456 113Q393 -12 261 -12Q163 -12 103 51T42 214Q42 307 100 370T251 433Q329 433 393 374Q394 398 394 395Q394 483 364 545Q324 624 245 624Q188 624 130 574L71 642Q150 712 244 712Q381 712 449 597Q505 502 505 356ZM389 283Q336 347 269 347Q213 347 182 308T150 211Q150 155 177 116Q207 71 261 71Q330 71 364 147Q389 204 389 283Z"  />
<glyph unicode="&#x2206;" horiz-adv-x="701" d="M685 0H14L279 694H405L685 0ZM523 108L343 569L170 108H523Z"  />
<glyph unicode="&#x220F;" horiz-adv-x="742" d="M681 -213H567V677H176V-213H61V787H681V-213Z"  />
<glyph unicode="&#x2211;" horiz-adv-x="661" d="M631 -213H30V-117L336 292L42 691V787H619V677H193L471 292L175 -103H631V-213Z"  />
<glyph unicode="&#x2212;" horiz-adv-x="665" d="M595 205H70V316H595V205Z"  />
<glyph unicode="&#x2215;" horiz-adv-x="173" d="M337 755L-72 -26H-163L246 755H337Z"  />
<glyph unicode="&#x2219;" horiz-adv-x="314" d="M229 240H86V367H229V240Z"  />
<glyph unicode="&#x221A;" horiz-adv-x="557" d="M563 787L346 -213H241L89 99L36 74L-4 163L146 233L276 -45L446 787H563Z"  />
<glyph unicode="&#x221E;" horiz-adv-x="824" d="M778 264Q778 184 733 133Q685 79 606 79Q511 79 412 191Q364 137 328 113Q277 80 220 80Q141 80 94 132T46 263Q46 342 92 394T216 446Q277 446 327 410Q359 387 412 326Q430 349 460 379Q523 446 604 446Q684 446 731 395T778 264ZM683 262Q683 299 662 323T603 347Q547 347 472 260Q545 178 606 178Q642 178 662 202T683 262ZM352 260Q278 347 218 347Q183 347 162 322T141 262Q141 225 162 202T221 179Q286 179 352 260Z"  />
<glyph unicode="&#x222B;" horiz-adv-x="628" d="M501 711Q501 687 486 671T446 655Q420 655 406 675Q401 683 391 711Q385 731 375 731Q350 731 350 658Q350 631 352 577T354 495V173Q354 19 349 -15Q346 -39 326 -94Q283 -213 196 -213Q156 -213 126 -193Q92 -171 92 -133Q92 -111 108 -98T147 -84Q173 -84 186 -103Q191 -112 200 -140Q206 -159 215 -159Q239 -159 239 -92Q239 -71 237 -30T235 33V477Q235 603 258 672Q295 785 395 785Q434 785 464 768Q501 747 501 711Z"  />
<glyph unicode="&#x2248;" horiz-adv-x="670" d="M608 455Q602 385 568 336Q527 277 462 277Q421 277 329 310T202 344Q175 344 158 325T137 277H63Q69 352 104 398Q144 453 215 453Q254 453 343 422T468 390Q524 390 534 455H608ZM607 243Q601 170 569 123Q531 65 464 65Q423 65 329 98T202 132Q146 132 137 66H62Q68 137 102 185Q141 243 207 243Q249 243 338 211T467 178Q522 178 533 243H607Z"  />
<glyph unicode="&#x2260;" horiz-adv-x="671" d="M598 95H311L233 -58L137 -10L190 95H73V205H246L302 315H73V426H358L436 580L533 532L478 426H598V315H423L367 205H598V95Z"  />
<glyph unicode="&#x2264;" horiz-adv-x="671" d="M598 103L73 278V389L598 560V445L226 334L598 218V103ZM598 -39H73V71H598V-39Z"  />
<glyph unicode="&#x2265;" horiz-adv-x="671" d="M598 278L73 103V218L445 334L73 445V560L598 389V278ZM598 -39H73V71H598V-39Z"  />
<glyph unicode="&#x25CA;" horiz-adv-x="598" d="M533 350L350 -40H246L65 350L247 740H350L533 350ZM418 350L298 626L179 350L298 72L418 350Z"  />
<glyph unicode="&#xE000;" horiz-adv-x="319" d="M247 776H149L-16 921H147L247 776Z"  />
<glyph unicode="&#xE002;" horiz-adv-x="319" d="M337 921L173 776H72L176 921H337Z"  />
<glyph unicode="&#xE004;" horiz-adv-x="319" d="M340 776H239L160 863L80 776H-20L92 922H228L340 776Z"  />
<glyph unicode="&#xE006;" horiz-adv-x="319" d="M340 921L227 776H91L-20 921H77L160 832L240 921H340Z"  />
<glyph unicode="&#xE008;" horiz-adv-x="284" d="M247 735L184 537H85L117 735H247Z"  />
<glyph unicode="&#xE009;" horiz-adv-x="320" d="M352 912Q346 862 315 827Q280 789 232 789Q206 789 156 805T80 822Q43 822 32 786H-31Q-26 838 8 873T94 909Q121 909 172 892T247 874Q278 874 285 912H352Z"  />
<glyph unicode="&#xE00B;" horiz-adv-x="319" d="M344 785H211V902H344V785ZM107 785H-24V902H107V785Z"  />
<glyph unicode="&#xE00D;" horiz-adv-x="308" d="M321 805H-13V874H321V805Z"  />
<glyph unicode="&#xE00F;" horiz-adv-x="320" d="M329 909Q313 774 160 774Q92 774 48 802Q-2 834 -7 898Q-8 900 -8 909H51Q62 845 161 845Q250 845 272 909H329Z"  />
<glyph unicode="&#xE011;" horiz-adv-x="318" d="M263 852Q263 808 233 778T159 748Q116 748 86 778T55 852Q55 895 85 925T159 956Q202 956 232 926T263 852ZM214 852Q214 875 198 891T160 907Q137 907 121 891T104 852Q104 829 120 813T160 797Q183 797 198 813T214 852Z"  />
<glyph unicode="&#xE013;" horiz-adv-x="319" d="M463 921L299 777H196L302 921H463ZM227 921L63 777H-38L66 921H227Z"  />
<glyph unicode="&#xE015;" horiz-adv-x="320" d="M226 785H94V902H226V785Z"  />
<glyph unicode="&#xE017;" horiz-adv-x="284" d="M210 -47L133 -213H36L84 -47H210Z"  />
<glyph unicode="&#xE01A;" horiz-adv-x="631" d="M243 590L320 735H415L365 590H243Z"  />
<glyph unicode="&#xFB01;" horiz-adv-x="665" d="M599 608H446V723H599V608ZM595 0H450V505H595V0ZM380 626Q354 628 332 628Q284 628 269 606Q257 589 257 546V505H373V409H257V0H111V409H13V505H111V547Q111 727 284 727Q320 727 380 722V626Z"  />
<glyph unicode="&#xFB02;" horiz-adv-x="664" d="M595 0H450V723H595V0ZM380 626Q354 628 332 628Q284 628 269 606Q257 589 257 546V505H373V409H257V0H111V409H13V505H111V547Q111 727 284 727Q320 727 380 722V626Z"  />

</font>
</defs>
</svg>
